<?xml version="1.0" encoding="UTF-8"?>
<svg width="51px" height="78px" viewBox="0 0 51 78" version="1.1" xmlns="http://www.w3.org/2000/svg" xmlns:xlink="http://www.w3.org/1999/xlink">
    <!-- Generator: Sketch 47 (45396) - http://www.bohemiancoding.com/sketch -->
    <title>Group 8</title>
    <desc>Created with Sketch.</desc>
    <defs>
        <polygon id="path-1" points="50.59476 0.0160914395 50.59476 44.6996466 0.000110542429 44.6996466 0.000110542429 0.0160914395"></polygon>
    </defs>
    <g id="Desktop" stroke="none" stroke-width="1" fill="none" fill-rule="evenodd">
        <g id="dp3" transform="translate(-615.000000, -494.000000)">
            <g id="Group-8" transform="translate(615.000000, 494.000000)">
                <path d="M13.3544037,24.3353103 C14.949385,27.7198276 18.2854475,29.9087234 21.7642437,30.8139593 C26.9740221,32.1686182 33.081272,30.641432 36.2725811,26.0932429 C37.2589245,24.6860448 37.9348895,23.0637201 38.4735071,21.4094459 C41.765807,11.2992034 37.9032457,2.49818053 27.7368392,0.381703502 C25.5689035,-0.069849462 23.2811254,-0.225337039 21.1811902,0.504531589 C14.2552416,2.91210408 11.3850832,12.480625 12.1088506,19.3625478 C12.2892875,21.0757511 12.6265967,22.7917943 13.3544037,24.3353103" id="Fill-1" fill="#FA9600"></path>
                <g id="Group-5" transform="translate(0.000000, 33.000000)">
                    <mask id="mask-2" fill="white">
                        <use xlink:href="#path-1"></use>
                    </mask>
                    <g id="Clip-4"></g>
                    <path d="M50.5948277,44.392732 C50.5948277,35.7017453 48.937182,27.1991848 49.5615077,18.4861922 C49.8919534,13.8656241 50.7424449,7.12766812 47.2409391,3.44441723 C45.9949963,2.13368606 44.2797934,1.56084289 42.514482,1.507891 C33.8517934,1.24656999 25.313022,-0.550355803 16.5968391,0.196472139 C11.7796449,0.609771949 6.54533057,1.91087551 4.760382,7.01419978 C3.32145343,11.1258796 3.42031629,15.985075 2.94767057,20.2913702 C2.286102,26.3196333 1.167462,32.3238274 0.627102,38.3589674 C0.436147714,39.8684401 -0.122495143,41.535393 0.0244448571,43.0538057 C0.343379143,46.3608918 36.3064363,43.5090544 50.5948277,44.392732" id="Fill-3" fill="#FA9600" mask="url(#mask-2)"></path>
                </g>
            </g>
        </g>
    </g>
</svg>