<?xml version="1.0" encoding="UTF-8"?>
<svg width="257px" height="88px" viewBox="0 0 257 88" version="1.1" xmlns="http://www.w3.org/2000/svg" xmlns:xlink="http://www.w3.org/1999/xlink">
    <!-- Generator: Sketch 47 (45396) - http://www.bohemiancoding.com/sketch -->
    <title>Group 3</title>
    <desc>Created with Sketch.</desc>
    <defs>
        <polygon id="path-1" points="40.8308589 0.0203491973 40.8308589 56.5270704 8.92096796e-05 56.5270704 8.92096796e-05 0.0203491973"></polygon>
        <polygon id="path-3" points="40.8308589 0.0206710261 40.8308589 57.4210633 8.92096796e-05 57.4210633 8.92096796e-05 0.0206710261"></polygon>
        <polygon id="path-5" points="40.8308589 0.0216365125 40.8308589 60.1030421 8.92096796e-05 60.1030421 8.92096796e-05 0.0216365125"></polygon>
        <polygon id="path-7" points="50.59476 0.0160914395 50.59476 44.6996466 0.000110542429 44.6996466 0.000110542429 0.0160914395"></polygon>
        <polygon id="path-9" points="50.59476 0.0160914395 50.59476 44.6996466 0.000110542429 44.6996466 0.000110542429 0.0160914395"></polygon>
        <polygon id="path-11" points="50.59476 0.0160914395 50.59476 44.6996466 0.000110542429 44.6996466 0.000110542429 0.0160914395"></polygon>
        <polygon id="path-13" points="50.59476 0.0160914395 50.59476 44.6996466 0.000110542429 44.6996466 0.000110542429 0.0160914395"></polygon>
    </defs>
    <g id="Desktop" stroke="none" stroke-width="1" fill="none" fill-rule="evenodd">
        <g id="dp6" transform="translate(-516.000000, -484.000000)">
            <g id="Group-3" transform="translate(516.000000, 484.000000)">
                <g id="Group-9" transform="translate(110.000000, 4.000000)">
                    <path d="M11.0930276,19.5801347 C12.3802054,22.3033095 15.0724664,24.0644901 17.879916,24.7928408 C22.0842985,25.8827963 27.0129564,24.6540258 29.5883988,20.9945632 C30.3843952,19.8623349 30.9299108,18.5570162 31.3645847,17.2259909 C34.0215284,9.09131308 30.9043738,2.01003031 22.6999053,0.307117761 C20.9503432,-0.0562007166 19.1040661,-0.181305664 17.4093816,0.405944956 C11.8200195,2.34307225 9.50375139,10.0418822 10.0878443,15.5790614 C10.2334601,16.9575009 10.5056746,18.3382253 11.0930276,19.5801347" id="Fill-1" fill="#FA9600"></path>
                    <g id="Group-5" transform="translate(0.000000, 27.000000)">
                        <mask id="mask-2" fill="white">
                            <use xlink:href="#path-1"></use>
                        </mask>
                        <g id="Clip-4"></g>
                        <path d="M40.8309136,56.1389468 C40.8309136,45.148345 39.4931644,34.3960266 39.9970062,23.3775961 C40.2636817,17.5344363 40.9500432,9.01363271 38.1242667,4.35580211 C37.1187689,2.69825448 35.7345701,1.97383833 34.3099328,1.9068755 C27.3189912,1.57640955 20.4280528,-0.695978684 13.3939404,0.248458216 C9.50638006,0.771116205 5.2821966,2.41648878 3.84171179,8.87014092 C2.68047119,14.0697617 2.76025525,20.2146891 2.37882186,25.6604201 C1.84492442,33.2837478 0.942162316,40.8766378 0.506082316,48.508662 C0.351978857,50.4175377 -0.0988557293,52.5255626 0.0197274286,54.4457437 C0.277112992,58.6278772 29.299931,55.0214501 40.8309136,56.1389468" id="Fill-3" fill="#FA9600" mask="url(#mask-2)"></path>
                    </g>
                </g>
                <g id="Group-4" transform="translate(41.000000, 2.000000)">
                    <path d="M12.0930276,19.5801347 C13.3802054,22.3033095 16.0724664,24.0644901 18.879916,24.7928408 C23.0842985,25.8827963 28.0129564,24.6540258 30.5883988,20.9945632 C31.3843952,19.8623349 31.9299108,18.5570162 32.3645847,17.2259909 C35.0215284,9.09131308 31.9043738,2.01003031 23.6999053,0.307117761 C21.9503432,-0.0562007166 20.1040661,-0.181305664 18.4093816,0.405944956 C12.8200195,2.34307225 10.5037514,10.0418822 11.0878443,15.5790614 C11.2334601,16.9575009 11.5056746,18.3382253 12.0930276,19.5801347" id="Fill-1" fill="#FAF5E6"></path>
                    <g id="Group-5" transform="translate(0.000000, 27.000000)">
                        <mask id="mask-4" fill="white">
                            <use xlink:href="#path-3"></use>
                        </mask>
                        <g id="Clip-4"></g>
                        <path d="M40.8309136,57.0268015 C40.8309136,45.86238 39.4931644,34.9400103 39.9970062,23.74732 C40.2636817,17.8117488 40.9500432,9.15618608 38.1242667,4.42469046 C37.1187689,2.7409282 35.7345701,2.00505519 34.3099328,1.93703332 C27.3189912,1.60134095 20.4280528,-0.7069858 13.3939404,0.252387658 C9.50638006,0.783311644 5.2821966,2.45470629 3.84171179,9.01042492 C2.68047119,14.2922793 2.76025525,20.5343906 2.37882186,26.0662475 C1.84492442,33.8101405 0.942162316,41.5231144 0.506082316,49.2758413 C0.351978857,51.2149065 -0.0988557293,53.3562704 0.0197274286,55.3068198 C0.277112992,59.5550951 29.299931,55.8916312 40.8309136,57.0268015" id="Fill-3" fill="#FAF5E6" mask="url(#mask-4)"></path>
                    </g>
                </g>
                <g id="Group-11" transform="translate(179.000000, 0.000000)">
                    <path d="M11.0930276,19.5801347 C12.3802054,22.3033095 15.0724664,24.0644901 17.879916,24.7928408 C22.0842985,25.8827963 27.0129564,24.6540258 29.5883988,20.9945632 C30.3843952,19.8623349 30.9299108,18.5570162 31.3645847,17.2259909 C34.0215284,9.09131308 30.9043738,2.01003031 22.6999053,0.307117761 C20.9503432,-0.0562007166 19.1040661,-0.181305664 17.4093816,0.405944956 C11.8200195,2.34307225 9.50375139,10.0418822 10.0878443,15.5790614 C10.2334601,16.9575009 10.5056746,18.3382253 11.0930276,19.5801347" id="Fill-1" fill="#DDD1BE"></path>
                    <g id="Group-5" transform="translate(0.000000, 27.000000)">
                        <mask id="mask-6" fill="white">
                            <use xlink:href="#path-5"></use>
                        </mask>
                        <g id="Clip-4"></g>
                        <path d="M40.8309136,59.6903654 C40.8309136,48.0044847 39.4931644,36.5719614 39.9970062,24.8564915 C40.2636817,18.6436863 40.9500432,9.58384616 38.1242667,4.63135549 C37.1187689,2.86894937 35.7345701,2.09870576 34.3099328,2.02750678 C27.3189912,1.67613515 20.4280528,-0.740007148 13.3939404,0.264175987 C9.50638006,0.819897961 5.2821966,2.56935882 3.84171179,9.4312769 C2.68047119,14.9598321 2.76025525,21.4934951 2.37882186,27.2837297 C1.84492442,35.3893185 0.942162316,43.462544 0.506082316,51.5773794 C0.351978857,53.6070129 -0.0988557293,55.848394 0.0197274286,57.8900481 C0.277112992,62.3367486 29.299931,58.5021745 40.8309136,59.6903654" id="Fill-3" fill="#DDD1BE" mask="url(#mask-6)"></path>
                    </g>
                </g>
                <g id="Group-8" transform="translate(70.000000, 10.000000)">
                    <path d="M13.3544037,24.3353103 C14.949385,27.7198276 18.2854475,29.9087234 21.7642437,30.8139593 C26.9740221,32.1686182 33.081272,30.641432 36.2725811,26.0932429 C37.2589245,24.6860448 37.9348895,23.0637201 38.4735071,21.4094459 C41.765807,11.2992034 37.9032457,2.49818053 27.7368392,0.381703502 C25.5689035,-0.069849462 23.2811254,-0.225337039 21.1811902,0.504531589 C14.2552416,2.91210408 11.3850832,12.480625 12.1088506,19.3625478 C12.2892875,21.0757511 12.6265967,22.7917943 13.3544037,24.3353103" id="Fill-1" fill="#FA9600"></path>
                    <g id="Group-5" transform="translate(0.000000, 33.000000)">
                        <mask id="mask-8" fill="white">
                            <use xlink:href="#path-7"></use>
                        </mask>
                        <g id="Clip-4"></g>
                        <path d="M50.5948277,44.392732 C50.5948277,35.7017453 48.937182,27.1991848 49.5615077,18.4861922 C49.8919534,13.8656241 50.7424449,7.12766812 47.2409391,3.44441723 C45.9949963,2.13368606 44.2797934,1.56084289 42.514482,1.507891 C33.8517934,1.24656999 25.313022,-0.550355803 16.5968391,0.196472139 C11.7796449,0.609771949 6.54533057,1.91087551 4.760382,7.01419978 C3.32145343,11.1258796 3.42031629,15.985075 2.94767057,20.2913702 C2.286102,26.3196333 1.167462,32.3238274 0.627102,38.3589674 C0.436147714,39.8684401 -0.122495143,41.535393 0.0244448571,43.0538057 C0.343379143,46.3608918 36.3064363,43.5090544 50.5948277,44.392732" id="Fill-3" fill="#FA9600" mask="url(#mask-8)"></path>
                    </g>
                </g>
                <g id="Group-2" transform="translate(0.000000, 10.000000)">
                    <path d="M14.3544037,24.3353103 C15.949385,27.7198276 19.2854475,29.9087234 22.7642437,30.8139593 C27.9740221,32.1686182 34.081272,30.641432 37.2725811,26.0932429 C38.2589245,24.6860448 38.9348895,23.0637201 39.4735071,21.4094459 C42.765807,11.2992034 38.9032457,2.49818053 28.7368392,0.381703502 C26.5689035,-0.069849462 24.2811254,-0.225337039 22.1811902,0.504531589 C15.2552416,2.91210408 12.3850832,12.480625 13.1088506,19.3625478 C13.2892875,21.0757511 13.6265967,22.7917943 14.3544037,24.3353103" id="Fill-1" fill="#DDD1BE"></path>
                    <g id="Group-5" transform="translate(0.000000, 33.000000)">
                        <mask id="mask-10" fill="white">
                            <use xlink:href="#path-9"></use>
                        </mask>
                        <g id="Clip-4"></g>
                        <path d="M50.5948277,44.392732 C50.5948277,35.7017453 48.937182,27.1991848 49.5615077,18.4861922 C49.8919534,13.8656241 50.7424449,7.12766812 47.2409391,3.44441723 C45.9949963,2.13368606 44.2797934,1.56084289 42.514482,1.507891 C33.8517934,1.24656999 25.313022,-0.550355803 16.5968391,0.196472139 C11.7796449,0.609771949 6.54533057,1.91087551 4.760382,7.01419978 C3.32145343,11.1258796 3.42031629,15.985075 2.94767057,20.2913702 C2.286102,26.3196333 1.167462,32.3238274 0.627102,38.3589674 C0.436147714,39.8684401 -0.122495143,41.535393 0.0244448571,43.0538057 C0.343379143,46.3608918 36.3064363,43.5090544 50.5948277,44.392732" id="Fill-3" fill="#DDD1BE" mask="url(#mask-10)"></path>
                    </g>
                </g>
                <g id="Group-10" transform="translate(138.000000, 10.000000)">
                    <path d="M13.3544037,24.3353103 C14.949385,27.7198276 18.2854475,29.9087234 21.7642437,30.8139593 C26.9740221,32.1686182 33.081272,30.641432 36.2725811,26.0932429 C37.2589245,24.6860448 37.9348895,23.0637201 38.4735071,21.4094459 C41.765807,11.2992034 37.9032457,2.49818053 27.7368392,0.381703502 C25.5689035,-0.069849462 23.2811254,-0.225337039 21.1811902,0.504531589 C14.2552416,2.91210408 11.3850832,12.480625 12.1088506,19.3625478 C12.2892875,21.0757511 12.6265967,22.7917943 13.3544037,24.3353103" id="Fill-1" fill="#F2EAD7"></path>
                    <g id="Group-5" transform="translate(0.000000, 33.000000)">
                        <mask id="mask-12" fill="white">
                            <use xlink:href="#path-11"></use>
                        </mask>
                        <g id="Clip-4"></g>
                        <path d="M50.5948277,44.392732 C50.5948277,35.7017453 48.937182,27.1991848 49.5615077,18.4861922 C49.8919534,13.8656241 50.7424449,7.12766812 47.2409391,3.44441723 C45.9949963,2.13368606 44.2797934,1.56084289 42.514482,1.507891 C33.8517934,1.24656999 25.313022,-0.550355803 16.5968391,0.196472139 C11.7796449,0.609771949 6.54533057,1.91087551 4.760382,7.01419978 C3.32145343,11.1258796 3.42031629,15.985075 2.94767057,20.2913702 C2.286102,26.3196333 1.167462,32.3238274 0.627102,38.3589674 C0.436147714,39.8684401 -0.122495143,41.535393 0.0244448571,43.0538057 C0.343379143,46.3608918 36.3064363,43.5090544 50.5948277,44.392732" id="Fill-3" fill="#F2EAD7" mask="url(#mask-12)"></path>
                    </g>
                </g>
                <g id="Group-14" transform="translate(206.000000, 10.000000)">
                    <path d="M13.3544037,24.3353103 C14.949385,27.7198276 18.2854475,29.9087234 21.7642437,30.8139593 C26.9740221,32.1686182 33.081272,30.641432 36.2725811,26.0932429 C37.2589245,24.6860448 37.9348895,23.0637201 38.4735071,21.4094459 C41.765807,11.2992034 37.9032457,2.49818053 27.7368392,0.381703502 C25.5689035,-0.069849462 23.2811254,-0.225337039 21.1811902,0.504531589 C14.2552416,2.91210408 11.3850832,12.480625 12.1088506,19.3625478 C12.2892875,21.0757511 12.6265967,22.7917943 13.3544037,24.3353103" id="Fill-1" fill="#FA9600"></path>
                    <g id="Group-5" transform="translate(0.000000, 33.000000)">
                        <mask id="mask-14" fill="white">
                            <use xlink:href="#path-13"></use>
                        </mask>
                        <g id="Clip-4"></g>
                        <path d="M50.5948277,44.392732 C50.5948277,35.7017453 48.937182,27.1991848 49.5615077,18.4861922 C49.8919534,13.8656241 50.7424449,7.12766812 47.2409391,3.44441723 C45.9949963,2.13368606 44.2797934,1.56084289 42.514482,1.507891 C33.8517934,1.24656999 25.313022,-0.550355803 16.5968391,0.196472139 C11.7796449,0.609771949 6.54533057,1.91087551 4.760382,7.01419978 C3.32145343,11.1258796 3.42031629,15.985075 2.94767057,20.2913702 C2.286102,26.3196333 1.167462,32.3238274 0.627102,38.3589674 C0.436147714,39.8684401 -0.122495143,41.535393 0.0244448571,43.0538057 C0.343379143,46.3608918 36.3064363,43.5090544 50.5948277,44.392732" id="Fill-3" fill="#FA9600" mask="url(#mask-14)"></path>
                    </g>
                </g>
            </g>
        </g>
    </g>
</svg>