<?xml version="1.0" encoding="UTF-8"?>
<svg width="1585px" height="1061px" viewBox="0 0 1585 1061" version="1.1" xmlns="http://www.w3.org/2000/svg" xmlns:xlink="http://www.w3.org/1999/xlink">
    <!-- Generator: Sketch 47 (45396) - http://www.bohemiancoding.com/sketch -->
    <title>Artboard 6</title>
    <desc>Created with Sketch.</desc>
    <defs></defs>
    <g id="Partner-Funnel" stroke="none" stroke-width="1" fill="none" fill-rule="evenodd" opacity="0.5">
        <g id="Artboard-6" fill="#FAF5E6">
            <g id="Page-1" style="mix-blend-mode: multiply;" transform="translate(-20.000000, 0.000000)">
                <path d="M300.170681,372.773347 C288.567225,381.989814 221.021045,316.334975 211.23658,296.17568 C217.235741,327.86991 239.232998,400.63748 215.183238,405.822939 C191.134481,411.009461 163.319462,335.153789 156.069557,313.326601 C148.672329,338.408786 123.144327,425.957784 102.693463,421.860868 C82.2425986,417.762889 92.2886372,326.03831 97.9620833,303.15447 C60.2483484,329.566506 50.1451845,338.874393 39.7974841,325.469589 C29.4497838,312.064785 63.1056166,225.550115 158.276398,157.60551 C253.446178,89.6609055 333.722285,75.1388572 347.202858,98.1853405 C360.682429,121.23395 319.49808,145.141487 299.456113,154.606704 C311.866338,158.675981 383.746025,170.9561 380.918823,193.563552 C378.092623,216.171004 303.664345,209.821528 288.532148,209.671641 C306.044566,228.469194 366.851963,285.273248 357.373169,297.364148 C347.893373,309.452921 264.994512,267.184735 255.258153,260.824629 C261.011775,269.806166 319.690502,357.270122 300.170681,372.773347" id="Fill-1"></path>
                <path d="M1115.09781,552.210022 C1093.88254,498.00386 1153.14025,397.683142 1337.48549,373.351182 C1528.68812,348.11428 1537.99141,471.873103 1519.4082,528.374459 C1509.37718,558.872994 1458.60396,649.62827 1366.76217,674.924024 C1319.165,688.033328 1265.90478,667.368903 1244.11974,643.523957 C1228.22178,626.121932 1220.81638,603.622034 1210.75957,598.649539 C1186.47866,586.645613 1133.22489,598.525014 1115.09781,552.210022" id="Fill-3"></path>
                <path d="M1040.693,638.026762 C1096.51773,639.769584 1159.89899,676.683317 1128.78797,833.305588 C1096.51851,995.75299 926.549518,993.860382 882.020001,975.785844 C857.982699,966.028192 790.936433,919.235985 796.304618,840.74527 C803.906607,729.59278 891.588521,730.211788 930.438689,709.757214 C975.923648,685.809547 997.886255,636.68944 1040.693,638.026762" id="Fill-5"></path>
                <path d="M1030.3306,144.03715 C1059.56194,145.617709 1086.45018,188.049297 1060.55173,261.817314 C1037.30646,328.02897 991.660312,338.989047 964.300827,319.029889 C943.866396,304.121171 932.530188,271.680188 945.565689,224.997631 C958.609073,178.283829 1005.35451,142.687242 1030.3306,144.03715" id="Fill-7"></path>
                <path d="M360.987949,656.304021 C321.834999,651.137787 227.551426,605.795203 259.490221,549.605167 C276.570444,519.556821 375.063567,514.780925 399.641339,524.784284 C383.719518,498.02046 327.91454,404.886113 347.482224,388.229519 C367.049908,371.574019 438.597775,452.9381 453.966251,476.312438 C460.641542,419.077128 460.496742,402.001769 480.21026,402.421628 C495.030565,402.736522 534.595162,487.250639 533.993207,549.420385 C533.257828,625.472813 485.202766,680.285186 360.987949,656.304021" id="Fill-9"></path>
                <path d="M1330.38754,230.133313 C1346.1249,182.333489 1409.75102,141.022227 1467.71346,226.595172 C1498.1413,196.955585 1579.83579,176.640015 1608,321.317001 C1509.74899,333.466803 1352.74899,335.592052 1137,327.692746 C1149.00496,256.882649 1224.29724,137.884853 1330.38754,230.133313 Z" id="Fill-13" transform="translate(1372.500000, 254.680605) rotate(-180.000000) translate(-1372.500000, -254.680605) "></path>
                <path d="M570.846131,624.603473 C594.408191,619.627861 617.297078,646.639338 616.623904,660.856383 C632.781046,623.892672 704.81549,639.53132 683.94517,697.110301 C729.722943,668.675202 792.331989,727.675787 737.801993,784.541947 C719.097497,804.049619 634.800569,842.83173 579.597398,867 C545.446227,803.954711 501.261506,639.299098 570.846131,624.603473" id="Fill-15"></path>
                <path d="M188.530684,679.53969 C109.287351,649.022671 11.9700675,503.336677 85.9806831,459.31902 C159.992402,415.302534 210.283647,544.273228 188.530684,679.53969" id="Fill-17" transform="translate(126.637093, 565.039690) rotate(-103.000000) translate(-126.637093, -565.039690) "></path>
                <path d="M1311.6954,750.218713 C1385.70712,706.202227 1435.99837,835.172921 1414.2454,970.439383 C1335.00207,939.922364 1237.68479,794.23637 1311.6954,750.218713 Z" id="Fill-17" transform="translate(1352.351811, 855.939383) rotate(-195.000000) translate(-1352.351811, -855.939383) "></path>
                <path d="M319.816868,755.097315 C429.964991,678.966288 524.366884,822.207857 428.06217,899.619227 C448.253293,945.981246 439.666228,1020.17143 360.465666,1042.23266 C327.461958,1051.42656 275.362429,1024.01163 264.098835,977.175808 C218.368249,1058.78584 118.531524,1003.52116 138.627506,933.458282 C34.2609685,941.785904 13.2033547,827.625459 65.6001011,789.454978 C50.1691736,663.194754 181.302572,656.90423 194.85584,709.783302 C205.358307,659.727954 307.097852,617.323132 319.816868,755.097315" id="Fill-19"></path>
                <path d="M655.784126,285.864184 C721.594951,339.870666 818.676002,226.430724 731.58865,162.90515 C791.556396,138.525304 808.447663,106.251003 787.267631,60.0536619 C762.997021,7.11433579 693.041823,32.8275757 672.66498,61.0362398 C643.722406,-43.8576281 531.715368,-3.47264687 557.073789,105.751624 C462.507823,63.7228843 430.351799,170.467911 495.812054,216.927077 C431.77838,235.505595 439.846369,325.984398 530.038876,293.601985 C530.288093,373.145931 653.067028,377.683735 655.784126,285.864184" id="Fill-21"></path>
                <path d="M835.925429,328.072142 C852.011032,330.097422 858.943651,438.170209 852.208096,462.418665 C870.388453,431.949534 905.476519,355.2865 928.702337,370.716034 C951.928154,386.145568 919.303398,470.043906 909.304992,493.572175 C933.517638,479.364175 1017.79819,429.532726 1031.36633,449.518942 C1044.93447,469.505954 970.144614,535.332742 948.923292,549.173087 C998.630257,558.616703 1013.56957,559.345645 1012.19839,578.602919 C1010.82797,597.860989 920.72422,640.227947 794.348515,617.437374 C667.972057,594.647597 592.471415,540.8953 598.316417,511.302331 C604.159915,481.708567 654.855965,496.004103 677.948651,504.712411 C670.8656,491.307362 621.638511,422.772507 640.354402,406.83526 C659.071046,390.896422 714.671904,456.722415 726.806432,469.185251 C726.297975,439.731545 718.386049,344.29826 734.84096,342.273775 C751.296624,340.248494 787.646055,441.969301 790.902889,455.043302 C792.774253,443.103299 808.865873,324.663782 835.925429,328.072142" id="Fill-23"></path>
            </g>
        </g>
    </g>
</svg>