<svg id="Layer_1" data-name="Layer 1" xmlns="http://www.w3.org/2000/svg" viewBox="0 0 900 796"><defs><style>.cls-1{fill:#f99602;}.cls-2{fill:#85aaf1;}.cls-3{fill:#473421;}.cls-4{fill:#2d69e9;}.cls-5{fill:#faf7d8;}.cls-6{fill:#fdb800;}.cls-7{fill:#feb800;}.cls-8{fill:#473320;}.cls-9{fill:#473420;}.cls-10{fill:#483521;}.cls-11{fill:#b68c6b;}.cls-12{fill:#836245;}.cls-13{fill:#edb6df;}.cls-14{fill:#f89501;}.cls-15{fill:#fefefe;}</style></defs><title>SquareArtboard 9 copy 5</title><polygon class="cls-1" points="0 796.02 0 0 900 0 900 796 0 796.02"/><path class="cls-2" d="M271,355.39c1.84-2.09,3.9-1.54,6.27-.92,20.6,5.43,40.34,13.37,60.44,20.28,3.91,1.34,7.63,3.26,11.41,5a10.65,10.65,0,0,1,3.42,2.85c4,4.54,7.88,9.17,10.68,14.59.35.84.67,1.69,1.06,2.52,7,15,11.44,30.85,14.55,47.07,1.45,7.55,2.63,15.16,3.94,22.74l1.72,10c.2,1,.37,1.93.61,2.89,1,3.91,2.45,7.68,3,11.72.23,1.83-.12,2.88-2.22,3.23a61.09,61.09,0,0,0-6.66,1.84c-.57.09-1.15.15-1.71.29-10.62,2.69-21.26,5.31-31.86,8.1-6.18,1.63-12.29,3.49-18.41,5.35-1.26.38-2.88.67-2.88,2.6,0,7.56-1.21,15.08-1,22.65-.48,9.05-1.32,18.1-1.36,27.15-.12,25.73.07,51.46,1.5,77.16.46,8.14,1.39,16.25,2.11,24.37a3,3,0,0,1-.14,1.95c-5.93,1.36-11.53,3.83-17.41,5.33-28.32,7.23-56.86,13.26-86,15.95-8.61.79-17.21,1.71-25.85,2.25-9.38.59-18.73,1.82-28.11,2.09-13.55.39-27.13.07-40.68.68a2.87,2.87,0,0,1-2.7-.89,3.59,3.59,0,0,1-1.19-2.89q-.49-5.45-1-10.9c0-.06.11-.12.1-.17a2.24,2.24,0,0,0-.11-.36l0-2.28c0-10.8.19-21.61-.22-32.4-.48-12.71-1.64-25.39-2.26-38.1-1-21.18-2.54-42.32-4.64-63.42a10.74,10.74,0,0,1,.08-3.88c.9-5.56,1.61-11.16,2.44-16.73.19-1.25-.22-1.8-1.45-2-2.52-.48-5-1-7.53-1.55-13.21-3-26.39-6.14-39.71-8.6C63,509.77,57.07,507.53,51,505.81a32.29,32.29,0,0,0-8-2.65c-2.71-.4-2.85-1.06-2.3-3.76,1.31-6.51,3-12.92,4.53-19.39,2.44-10.44,6.25-20.5,8.66-30.93a127.94,127.94,0,0,1,10.59-28.91c2.87-5.7,5.89-11.32,8.4-17.2,2.84-6.66,8.53-10.65,14.24-14.59,6.63-4.57,14.13-7.39,21.38-10.69,12.26-5.58,24.47-11.26,36.86-16.54,7-3,14.27-5.51,21.16-8.83a3.47,3.47,0,0,1,3.93.28c1.41,1,3,1.82,4.45,2.72,11.43,7,22.7,14.21,34.6,20.4,5.46,2.84,11.34,5.12,16.2,8.77,4.08,3.07,6.44,1.51,9.56-.76s6.08-4.91,9.39-7C254.25,370.62,262.53,362.88,271,355.39Z"/><path class="cls-3" d="M124.72,694.23a2.87,2.87,0,0,0,2.7.89c13.56-.61,27.13-.29,40.68-.68,9.38-.27,18.73-1.5,28.11-2.09,8.64-.54,17.24-1.46,25.85-2.25,29.16-2.69,57.7-8.72,86-15.95,5.88-1.5,11.48-4,17.41-5.33,1.11,10.25,2.29,20.49,3.33,30.75q2.47,24.45,4.78,48.91c1.31,14,2.52,28,3.7,42,.15,1.81.67,3.7.31,5.54q-51.42,0-102.84,0-59.28,0-118.56,0c-.75,0-1.49,0-2.24,0-.2-3.48-.4-7-.6-10.52,9.29-.67,16.7-10.75,16.75-19.34,0-7.89,0-15.76-.28-23.64-.31-8.72-1.43-17.38-2-26.08C127.27,709,125.78,701.63,124.72,694.23Z"/><path class="cls-4" d="M800.11,467.49c5.45-.57,10.54,1.18,15.62,2.63,9.89,2.83,18.86,7.41,26.41,14.55.78.74,1.71,1.36,1.77,2.59-1.33,4.28-2.73,8.55-4,12.86a119.47,119.47,0,0,0-4.29,27.53c-.42,9-.91,18.1-.1,27.15a335.26,335.26,0,0,0,2,41.61c2.15,18.82,6.47,37.2,11,55.53a208.25,208.25,0,0,0,9.21,28.47c.16.39.31.77.46,1.16,1.16,3.18,1,3.17-2.17,4.14-6.24,1.92-12.75,2.22-19.09,3.51-3,.15-6,.4-8.94.44-8.71.11-17.42.13-26.13.18a40.79,40.79,0,0,0-8.3-.17c-3.49-.21-7-.36-10.46-.64-7.87-.62-15.74-1.31-23.61-2l-15.84-2.32c-2.76-.55-5.51-1.18-8.29-1.6-1.84-.28-2.39-1.17-2.42-3-.1-7.81.5-15.59.9-23.37.33-6.45,1-12.89,1.46-19.33,1.1-12.34,3.74-24.45,5.46-36.69.92-6.53,2.22-13,2.76-19.61A4.1,4.1,0,0,0,744,580a306.91,306.91,0,0,0,.86-34.44c-.62-4.78-1.09-9.58-1.9-14.32-1.42-8.38-3.37-16.62-7.91-24a151,151,0,0,0-6.88-18.6c.11-1.37,1.12-2,2.19-2.45,8.52-4,17.07-8,25.76-11.61,1.68-.71,1.92.72,2.8,1.24a25.35,25.35,0,0,0,8.17,8.25,16.26,16.26,0,0,0,9.63,3A24.5,24.5,0,0,0,800.11,467.49Z"/><path class="cls-5" d="M455.68,738.44h-.25c-5.27.41-5.32.41-5.56-4.82-.59-12.88-1-25.77-1.72-38.63-.93-15.85-2.22-31.68-3.26-47.52-.5-7.55-.77-15.11-1.19-22.66-.2-3.71-.51-7.41-1-11.11-.9,3-.83,6.1-1.09,9.16q-2.22,26.47-4,53c-1.31,19.41-2,38.86-4,58.23-.18,1.82-.65,2.6-2.68,2.48-4.39-.27-8.8-.27-13.21-.37-2.89-.16-5.78-.39-8.67-.46-6.45-.16-12.87-1-19.33-.65l-1.88-.09a16.48,16.48,0,0,1,0-2.48,231.83,231.83,0,0,0,2-25.09c.55-13.89,1.25-27.77,1.73-41.66.4-11.57-.72-23.1-1.13-34.65-.47-13.55-.67-27.11-1.56-40.65-.78-11.87-1-23.77-2.19-35.62-.45-4.54-.87-9.08-1.3-13.63a125.31,125.31,0,0,0,14.45.3c10.22-.59,20.43-1.14,30.64-1.89,19.38-1.43,38.89-1.46,58-5.84l.21,2.43a12.33,12.33,0,0,0,.14,4l.38,3.5.17,3,.31,4.5a6.7,6.7,0,0,0,.16,3,10.68,10.68,0,0,0,.34,3.5,12.4,12.4,0,0,0,.17,4,4.38,4.38,0,0,0,.33,2.5l.12,3,.4,2.5.13,2.5a5.12,5.12,0,0,0,.36,2.5l.17,2,.33,3,.15,2.5a6.73,6.73,0,0,0,.36,3,7.25,7.25,0,0,0,.16,3l.35,3,.1,1,.4,3a4.87,4.87,0,0,0,.17,2.49l.33,2.5a6.52,6.52,0,0,0,.19,3l.3,2.5a2.94,2.94,0,0,0,.28,2.06l.22,1.44a4.12,4.12,0,0,0,.31,2.55l.18,1.45a7.16,7.16,0,0,0,.42,3.5l.08,1a6.1,6.1,0,0,0,.42,3l.07,1a6.09,6.09,0,0,0,.38,3l.14,2a8.47,8.47,0,0,0,.42,3.5l.06,1,1,9,0,3.5,2,21.49v1c-.28,1.44.28,2.8.37,4.2q1.33,19.13,2.62,38.27v1.5l.57,12c.09,1.64.11,3.29.3,4.92s-.12,2.47-2,2.8c-6.75,1.14-13.46,2.53-20.18,3.82-3.51.06-6.8,1.31-10.21,1.89C466.73,736.44,461.21,737.46,455.68,738.44Z"/><path class="cls-6" d="M271,355.39c-8.48,7.49-16.76,15.23-26.35,21.33-3.32,2.11-6.24,4.71-9.39,7s-5.48,3.83-9.56.76c-4.85-3.65-10.74-5.93-16.2-8.77-11.89-6.19-23.17-13.43-34.6-20.4,5.48-4.54,8.12-10.3,8.63-17.48s-2.42-12.71-6.48-18a102.18,102.18,0,0,1-20.84-59.44,6.38,6.38,0,0,0-3.14-5.83A79.06,79.06,0,0,1,142.38,246c-.26-1-1.16-1.6-1.77-2.38a21.56,21.56,0,0,1-4.68-14.4c.11-3-.09-6,.23-9,.66-6.17,4.15-10.73,8.84-14.5,4.35-1,7.85.36,10.55,3.84a22.79,22.79,0,0,1,4.18,9c.23,1,.32,2,1.72,2,2.82.08,5.6.65,8.45.69,1.71,0,2.34-.57,2.64-2.16.57-2.94,1.36-5.83,2-8.75A93.54,93.54,0,0,1,200,163.75c1.26-1.27,1.81-1.91,2.61.47,2.61,7.78,6.13,15.09,12.12,20.93,1.37,1.33,2.73,2.66,4.73,3.1,1.23.27,1.94,0,2-1.33q.19-2.86.43-5.72c.57-6.81,2.11-13.29,6.43-18.82.85-1.09,1.65-2,3.3-1.55s1.89,1.36,2.18,2.66a70,70,0,0,0,3.3,10.19c2.7,7,7,13,10.57,19.5,10.59,19,25.95,33.11,44.55,44,2,1.14,2.53.58,2.88-1.38,1.15-6.38,2.43-12.73,3.54-19.12.25-1.47.85-1.79,2.24-2,3-.35,4.94,1.68,7.36,2.62,4.84,5.82,5.18,12.45,2.94,19.23-1.07,3.26-3.12,6.2-4.72,9.29-.26.51-.47,1-.71,1.57a1,1,0,0,0-.5,1l0-.07c-.08,0-.19,0-.23.07a46.41,46.41,0,0,1-17,14.11c-.8.38-.87,1.17-1.08,1.86-2.41,8.19-4.67,16.43-8.05,24.3-4.18,9.16-9.53,17.65-14.88,26.15-5.46,8.68-7.46,18-4.22,28C261.71,348.58,265.86,352.49,271,355.39Zm-78.17-82.86c-.73,9,6.46,20.38,12.63,22.82a45.84,45.84,0,0,0,10.08,2.59c13.21,2,23-8.67,24.95-19.59.33-1.88-.23-2.55-2.28-2.24-14.65,2.26-28.65.91-41.41-7.48-3.24-2.13-4-1.62-4,2.15Q192.83,271.66,192.84,272.53Zm15.53-25.18c-.2,3,.32,5.62,2.46,7.89,3.07,3.26,6.89,3.86,11,3.32,4.68-.62,9.14-6.61,8.72-11.33a3.53,3.53,0,0,0-2.09-3.15c-1.39-.61-2.38.26-3.17,1.31-1.05,1.39-2,2.82-3.1,4.2-1.58,2.08-3.64,2.66-5.63,1.64-1.67-.86-2.4-3.17-1.71-5.47.48-1.59,1-3.16,1.47-4.76a2.76,2.76,0,0,0-.84-3.16c-1.11-.85-2.2-.4-3.27.13a5.86,5.86,0,0,0-2.46,2.72A12.26,12.26,0,0,0,208.37,247.35Zm-3.93-23.91c0-4.57-3.72-8.49-8-8.42-4.71.07-8.28,4.33-8.33,10a8.36,8.36,0,0,0,8,8C201,232.91,204.44,229,204.44,223.44Zm37.86,6.37c-.11,5,3,8.39,7.71,8.52s7.48-3.32,7.64-9.37a7,7,0,0,0-6.46-7.08C245.46,221.7,242.42,224.4,242.3,229.81Z"/><path class="cls-3" d="M637.11,608.47c.06,11.65-.7,23.27-1.06,34.91-.32,10.31-.68,20.61-.9,30.92,0,1.76-.58,2.64-2.28,2.82l-14,1.91a250,250,0,0,1-26.27,1.71c-4,0-8-.09-12-.05-7.56.08-15.11-.11-22.66-.41-.82-.08-1.64-.2-2.46-.24-8-.39-16-.77-24-1.6-4.2-.44-8.26-1.72-12.5-1.92-1.54-.25-1.32-1.45-1.31-2.5q0-9.44.1-18.88a7.28,7.28,0,0,0,.14-3c.53-3.81.2-7.64.38-11.46a6.71,6.71,0,0,0,0-3.52c.57-3.15.31-6.33.43-9.49a7.79,7.79,0,0,0,.05-3.5c.86-8.18,1.61-16.38,2.62-24.54,2.4-19.49,5.61-38.86,9-58.21,1.76-10.16,3.7-20.3,5.64-30.43.87-4.56,1.28-9.21,2.69-13.66,29.8.53,59.6.93,89.35-1.42.47,1.59.88,3.19,1.41,4.75,1.58,4.63,1.71,9.62,3.63,14.16a44.94,44.94,0,0,0,1.54,7.18c-1.35,3-2.86,6-4,9.08a67,67,0,0,0-4.82,23.21c-.87,13.16.19,26,5.34,38.36A159.38,159.38,0,0,1,637.11,608.47Z"/><path class="cls-7" d="M124.72,694.23c1.06,7.4,2.55,14.77,3.08,22.21.62,8.7,1.73,17.36,2,26.08.28,7.88.32,15.75.28,23.64-.05,8.59-7.46,18.67-16.75,19.34-12.88,1-20.5-7.09-24.8-18-3.34-8.43-5.49-17.27-8.89-25.66-3.78-9.36-6-19.2-8.68-28.85-2.76-9.88-4.92-20-6.83-30.13S59.52,663,57.54,653c-2.63-13.28-5.87-26.45-8.28-39.77a280.84,280.84,0,0,1-3.85-32.85c-.74-12.16.5-24.2,1.06-36.29a313.24,313.24,0,0,1,4-36.08c.12-.74.33-1.46.5-2.19,6.06,1.72,12,4,18.21,5.11,13.32,2.46,26.5,5.6,39.71,8.6,2.49.56,5,1.07,7.53,1.55,1.23.24,1.63.79,1.45,2-.83,5.58-1.54,11.17-2.44,16.73a10.74,10.74,0,0,0-.08,3.88c-1,4.63-1.37,9.34-1.9,14q-1.2,10.51-2.28,21a84.46,84.46,0,0,0-.41,17.64c1.36,12.27,4,24.38,5.35,36.69,1.18,10.88,2.83,21.72,4.35,32.57.56,4,1.33,8,2,12l0,2.29v.53q.49,5.45,1,10.9A3.59,3.59,0,0,0,124.72,694.23Z"/><path class="cls-7" d="M385.45,541.19c.43,4.54.84,9.09,1.3,13.63,1.18,11.85,1.41,23.75,2.19,35.62.89,13.54,1.09,27.1,1.56,40.65.4,11.55,1.52,23.08,1.13,34.65-.48,13.89-1.17,27.77-1.73,41.66a231.83,231.83,0,0,1-2,25.09,16.48,16.48,0,0,0,0,2.48c-.18.37-.52.74-.51,1.11.08,5.69-2.54,10.56-5.5,15a16.88,16.88,0,0,1-17.57,7.17c-7.79-1.84-10.68-8-13.38-14.27-3.27-7.6-4.55-15.75-5.65-23.92-1.52-11.26-2.57-22.56-3.59-33.87-1.06-11.66-1.28-23.38-2.53-35-1.45-13.45-1-26.89-1.41-40.33a199,199,0,0,0-6.63-43.5q-3.51-13.52-7-27c-.19-.72-.49-1.4-.73-2.1-.26-7.57,1-15.09,1-22.65,0-1.93,1.62-2.22,2.88-2.6,6.11-1.86,12.23-3.72,18.41-5.35,10.6-2.79,21.24-5.42,31.86-8.1.56-.14,1.14-.19,1.71-.29C382.32,513,383.26,527.21,385.45,541.19Z"/><path class="cls-8" d="M735.35,637.46c-.5,6.44-1.13,12.88-1.46,19.33-.4,7.78-1,15.56-.9,23.37,0,1.8.58,2.69,2.42,3,2.78.42,5.53,1.06,8.29,1.6-.17,7.4.19,14.79.65,22.17.64,10.36,1.51,20.71,1.7,31.1,0,2.38.1,4.63-3.31,4.33.3,1.22,1.19,1.63,1.82,2.24,2.89,2.76,5.79,5.5,7.87,9,.64,1.06,1.41,2.09,1.22,3.45-1.24.8-1.41,1.65-.11,2.56-.72,3.73-3.73,4.41-6.73,4.83-6.17.87-11.6-1.58-17-4.14a72.53,72.53,0,0,1-13.24-8.45c-3.83-3-5.36-7.48-5.95-12q-1.93-14.85-4-29.68c-1.35-9.81-2.54-19.65-3.81-29.47-.11-.83-.25-1.65-.4-2.47s-.36-1.43-1.2-1.3c-.66.1-.71.83-.74,1.43-.13,2.66-.32,5.32-.36,8-.32,19.15-2,38.24-2.43,57.38,0,1.69-.69,2.43-2.41,2.33s-3.29,0-5.15,0a5.29,5.29,0,0,0,1.92,2.83,38,38,0,0,1,5.6,7.32c1.56,2.51,2.59,5.14.86,8s-4.57,3.05-7.45,3.14c-8,.24-14.87-3.16-21.36-7.39A48.59,48.59,0,0,1,658.06,749a10.85,10.85,0,0,1-2-5.28c-1.13-7,.27-14,.71-20.91.63-10,.74-20,1.27-29.94.75-14,1.36-27.94,2-41.9,1.14-.16,2.3-.29,3.43-.5,3.41-.64,4.65-2.47,4-5.84a10.64,10.64,0,0,0-1.35-3.7,14.74,14.74,0,0,1-1.76-5.39,2.26,2.26,0,0,1,1.44-2.82c2.16-.75,2.84-2.35,2.8-4.45a51.69,51.69,0,0,0,11.19.23c13.54-1.27,26.95-3.25,39.76-8.13,4-1.51,8-2.86,11.95-4.29Z"/><path class="cls-7" d="M731.56,616.13c-4,1.42-8,2.78-11.95,4.29-12.81,4.88-26.22,6.86-39.76,8.13a51.71,51.71,0,0,1-11.19-.23,19.38,19.38,0,0,0-3.15-4.65c-2-2.29-4-4.57-4.48-7.74a146.73,146.73,0,0,0-2.12-30.69A96.61,96.61,0,0,0,652,561.65a13.74,13.74,0,0,0-3.24-5c-.18-1.89-1.38-2.44-3.1-2.48-2.41-.06-4.82-.4-7.23-.36-4.22.06-8.47-.57-12.66.43a67,67,0,0,1,4.82-23.21c1.17-3.09,2.67-6.05,4-9.08.62-1,1.22-2,1.85-2.93,5.67-8.69,13-15.23,23.24-18,2.31-.63,4.74-.8,6.94-1.83,2.3,2.71,4,5.88,6.42,8.49,7.51,8,19.09,9.43,27.8,3.29,4.21-3,6.61-7.36,9-11.75l3.36.35c8.25-.2,15.82,1.51,21.8,7.7,4.54,7.37,6.49,15.6,7.91,24,.81,4.74,1.28,9.54,1.9,14.32l-12.07,3c-5.12,1.26-5.12,1.26-4.65,6.45a5.2,5.2,0,0,0,0,.75c.8,10.49,1.69,21,2.39,31.47.57,8.52,1.35,17,2.53,25.46A3.2,3.2,0,0,1,731.56,616.13Z"/><path class="cls-7" d="M628.07,495.89c-29.75,2.35-59.55,1.94-89.35,1.42-.17-1.32-.36-2.63-.51-3.95A57.63,57.63,0,0,0,531,470.25c-2.55-4.36-5.85-8.28-7.81-13a3.33,3.33,0,0,0-1-2c-.4-4.73-.69-9.44.84-14.08a54.38,54.38,0,0,0,1.51-6.05c1.77-8.55-.7-16.24-4.87-23.57.11-1.73,1.44-2.52,2.67-3.34,3.5-2.33,7-4.6,10.57-6.91a6.22,6.22,0,0,0,2.25-1.89c1.11.15,1.85-.61,2.69-1.1,5.15-3,10.24-6.08,16.06-7.65.67,1.87,1.32,3.75,2,5.61,2.84,7.52,6.94,14,14.74,17.3,1.61.69,2.29.39,3-1.2,2.56-6,4.89-12.17,7.12-18.33a6.63,6.63,0,0,1,2.61-3.81c2.76-1.69,5.45-3.48,8.17-5.24,0,.41,0,.83.05,1.24.69,14.77,11.22,22,25.16,18.46,4.32-1.1,7.57-4,10.74-6.94,4.72,2,8.42,5.54,12.4,8.63,2,1.51,4.05,2.91,5.2,5.24-.53.84-1,1.73-1.59,2.52a165.85,165.85,0,0,0-14.17,23.36,3.13,3.13,0,0,0,.34,3.81,39.71,39.71,0,0,1,5,8.27c-.94,2.74-1.8,5.51-2.84,8.21a58.51,58.51,0,0,0-4.27,22.52C627.72,485.49,627.46,490.7,628.07,495.89Z"/><path class="cls-9" d="M308.31,217.35c-2.42-.94-4.4-3-7.36-2.62-1.39.17-2,.49-2.24,2-1.11,6.39-2.39,12.74-3.54,19.12-.35,2-.93,2.52-2.88,1.38-18.6-10.87-34-25-44.55-44-3.6-6.46-7.87-12.54-10.57-19.5a70,70,0,0,1-3.3-10.19c-.29-1.3-.66-2.28-2.18-2.66s-2.45.46-3.3,1.55c-4.32,5.53-5.86,12-6.43,18.82q-.24,2.86-.43,5.72c-.09,1.36-.8,1.6-2,1.33-2-.44-3.36-1.77-4.73-3.1-6-5.84-9.51-13.15-12.12-20.93-.8-2.38-1.35-1.74-2.61-.47a93.54,93.54,0,0,0-25.48,46.63c-.65,2.92-1.44,5.81-2,8.75-.31,1.59-.94,2.18-2.64,2.16-2.84,0-5.62-.6-8.45-.69-1.4,0-1.49-1-1.72-2a22.79,22.79,0,0,0-4.18-9c-2.7-3.48-6.2-4.86-10.55-3.84a154.59,154.59,0,0,1,11.24-37.59c5.24-11.45,12.3-21.5,22.1-29.39,13.86-11.16,30-16.12,47.62-15.23a88.9,88.9,0,0,1,32,7.76c7.65,3.43,14.78,7.45,20.79,13.41,6.63,6.57,11.6,14.29,16.23,22.3,7.63,13.2,11.36,27.55,12.89,42.6C308.17,212.21,308.16,214.78,308.31,217.35Z"/><path class="cls-3" d="M382.77,469.5c-1.3-7.58-2.49-15.18-3.94-22.74-3.11-16.22-7.52-32.05-14.55-47.07-.39-.82-.71-1.68-1.06-2.52,2.28-4.71,4.5-9.43,8.06-13.4,5.09-5.68,11-9.87,18.75-10.94,2-.29,2.86-1.09,3-3.11.4-7.15,3.65-12.49,10.25-15.56,1.5-.7.93-1.36.27-2.25a46.48,46.48,0,0,1-9.7-30.51,49.4,49.4,0,0,1,9.1-26.5c9.77-14.07,23.72-18.68,40.35-17.78,9.34.51,17.45,3.73,25.08,8.69s12.38,12.38,15.82,20.66c5.15,12.42,4.7,24.71-.53,37.06-3.62,8.55-9,15.5-17,20.29-.5.3-1,.53-1.55.79a6,6,0,0,1,.13-1.23c3.58-11.16,3.91-22.55,2.52-34.07a47.37,47.37,0,0,0-1.09-5.62c-.36-1.47-1.37-2.14-2.82-1.36-5.87,3.17-12.37,3.71-18.78,4.58a47.93,47.93,0,0,1-17.37-.47c-4.46-1-5.45-.38-6.21,4.13-.7,4.16-.7,4.16-4.84,4.14-3.19,0-5,1.71-5.37,4.89-.45,3.43.65,6.27,3.54,7.91s3.09,3.77,3.07,6.47c-.06,8-1,15.93-1.68,23.88-2.21.17-4.43.4-6.65.49-2.82.12-2.91.19-2,3a129.12,129.12,0,0,0,7.25,16.87c-.13,1-1,1.26-1.64,1.71-2.76,1.83-5,4.07-5.78,7.44q-2.27,10-4.51,20.06c-2.12,1.85-4.19,3.77-6.39,5.51a2.34,2.34,0,0,0-.8,3.36c2.89,6,5.66,12.15,8.5,18.22.5,1.07,1,2.1.47,3.3a31.05,31.05,0,0,0-3.48,1.22C394.85,462.13,388.47,465.21,382.77,469.5Z"/><path class="cls-10" d="M554,390.63c-5.82,1.57-10.91,4.66-16.06,7.65-.84.49-1.59,1.25-2.69,1.1-2.89-6.69-3.42-13.48-.87-20.4.48-1.3-.5-2-1.08-2.86-3.75-5.45-7.12-11-7.82-17.84-1.37-13.22,3.24-23.79,14-31.59,2.25-1.62,5-2.07,7.78-3.22a14.18,14.18,0,0,1-2.86-9.12c0-9.6,8.14-15.42,17.2-16.51a22.7,22.7,0,0,1,12.18,1.81,2.32,2.32,0,0,0,2.91-.5c12-11.71,35-3.61,38.39,13.53a4.41,4.41,0,0,0,3.34,3.91c7.67,2.64,11.91,9.31,11.71,17.83a28.06,28.06,0,0,1-3.37,13.17c-.82,1.47-.69,2.49.83,3.23,6.88,3.34,10.42,16.6,6.45,24.26-1,1.91-1.75,4-3.37,5.5a2.67,2.67,0,0,0-.58,2.78,18.69,18.69,0,0,1-2.55,14.35c-3.16,3-6.42,5.84-10.74,6.94-13.94,3.53-24.47-3.69-25.16-18.46,0-.41,0-.83-.05-1.24.88-3.95,2.26-7.69,5-10.72.94-1,.67-1.48-.12-2.35a20.29,20.29,0,0,1-5.61-14.78c.08-2.6-.47-3.07-3-2.36-.84.24-1.14.88-1.53,1.52a21,21,0,0,1-3.61,4.45c-6.33,6-16,3.31-18.41-5.12a20.39,20.39,0,0,1-.54-5.7,3.7,3.7,0,0,0-2.9-3.86,3.38,3.38,0,0,0-4.26,1.63c-.69,1.14-1.5,2.19-2.23,3.31a9.84,9.84,0,0,1-8.24,4.83,11.9,11.9,0,0,1-8.72-3.48c-.2.31-.35.43-.35.55.61,13.42,5.26,25.13,14.71,34.82C552.65,388.58,553.88,389.18,554,390.63Zm35.77-41.19c3,.58,2.37-2.34,3.29-3.87a1.33,1.33,0,0,0-.67-2.18,13.51,13.51,0,0,1-6.15-6.64,2.87,2.87,0,0,0-2.68-1.84,88.63,88.63,0,0,1-12.1-1.58c-7.9-1.36-15.61-3.35-22.25-8.17-1-.7-1.45-.44-2,.36l-4.48,6.6c-.86,1.26-.53,1.67,1,1.64,3.85-.08,7.75.62,10.35,3.46,2.44,2.66,4.33,5.5,8.54,4.88.61-.09,1.37.54,2,1a1.73,1.73,0,0,0,2.4-.12c6.06-4.66,17.6-1.72,20.82,5.27C588.14,349,588.41,349.75,589.72,349.44Zm-21.8,1.42c-.11,6.25,4.51,10.14,9.7,8.13,3.65-1.42,5.12-4.55,6-8,.31-1.27-.46-2.23-1.43-3a13.88,13.88,0,0,0-7.75-3.06C569.74,344.59,568,346.16,567.92,350.86Zm-29.45-6.28a7,7,0,0,0,6.49,7.24c3.61.45,7.17-2.57,7.95-6.73.62-3.3-.93-5.19-5.31-6.46-.48-.14-1-.23-1.45-.32C540.76,337.25,538.53,339.08,538.46,344.59Z"/><path class="cls-9" d="M745.88,417.62c-4.32-3.41-7.26-7.76-6.13-13.36,1.77-8.7,5.89-16,14.35-20.16a21.41,21.41,0,0,1,11.34-2.32c1.68.14,2.12-.06,1.75-1.92-1.93-9.62,8.1-17.42,14.65-16.58a16.47,16.47,0,0,1,6.89,2.7c.76.49,1.66,1.27,2.07-.29,2.3-8.6,16-9.23,22.41-4.35,7.44,5.68,6.42,15.54,2.58,20.5-.66.85-.84,1.36-.18,2.35,3.94,6,3.14,17.19-1.87,21.93-.83.79-.85,1.35-.1,2.28,4.89,6.07,5.88,13.33,5.66,20.72-.38,13.25-10.89,26.08-23.74,28.58a11.6,11.6,0,0,1,1.54-3.91,103.43,103.43,0,0,0,5.31-11c.61-1.43.41-2.23-1.39-2a16.13,16.13,0,0,1-6.59-1.12c-5.75-1.86-10.79-5.12-16-8.13s-9.09-7.46-12.72-12.15c-1.08-1.4-2.17-2.49-4.17-1.58C756.35,420.17,751.1,419.71,745.88,417.62Z"/><path class="cls-11" d="M416.22,377.88c.66-8,1.62-15.88,1.68-23.88,0-2.71-.32-4.9-3.07-6.47s-4-4.48-3.54-7.91c.42-3.19,2.18-4.91,5.37-4.89,4.13,0,4.13,0,4.84-4.14.76-4.51,1.75-5.16,6.21-4.13a47.93,47.93,0,0,0,17.37.47c6.41-.87,12.92-1.42,18.78-4.58,1.45-.79,2.46-.12,2.82,1.36a47.37,47.37,0,0,1,1.09,5.62c1.39,11.52,1.06,22.91-2.52,34.07a6,6,0,0,0-.13,1.23c-.71,1.11-1.87,2-2,3.42-2.87,3.77-6,7.3-10.11,9.76a1.52,1.52,0,0,0-.82,1.44c-1.29.23-1.35,1.24-1.49,2.25-.43,3-1,6.05-1.3,9.1a4.59,4.59,0,0,1-3.38,4.14,19,19,0,0,1-16.91-2,45.31,45.31,0,0,1-12.26-11.87A2.92,2.92,0,0,1,416.22,377.88Zm38-23.63a16.4,16.4,0,0,0-1.08-5.32c-.62-2.06-1.25-4.13-1.79-6.22-.32-1.24-.59-2.78-2.13-2.56s-1.29,1.91-1.24,3.09a11.18,11.18,0,0,0,.62,2.66c.57,1.91,1.23,3.78,1.77,5.7.37,1.33,1.14,3-.05,4s-2.35-.52-3.45-1.15a2.53,2.53,0,0,0-1.38-.42c-1.06.11-1.7.73-1.37,1.88.47,1.63,4.37,3.55,6.6,3.28S454.16,357.21,454.18,354.25Zm1-13.69c0,2.68,1.19,4.1,3.32,4a3.78,3.78,0,0,0,3.7-3.88c0-2.55-1.7-4.47-3.79-4.38S455.15,338.07,455.16,340.56Zm-11.68,26.21a12.53,12.53,0,0,0,5.09-.54c.91-.29,1.82-.65,1.59-1.85s-1.32-1-2.2-.91c-3.33.26-6.63.41-9.71-1.32-.88-.49-2-.83-2.64.32s.28,1.92,1.18,2.41C438.91,366,441.1,367.06,443.48,366.77Zm-5.14-27c0-2.52-1.15-3.77-3.55-3.78s-3.5,1.38-3.49,3.89c0,2.3,1.29,3.73,3.39,3.74A3.64,3.64,0,0,0,438.34,339.78Z"/><path class="cls-12" d="M745.88,417.62c5.22,2.08,10.47,2.55,15.72.18,2-.91,3.09.18,4.17,1.58,3.63,4.69,7.53,9.13,12.72,12.15s10.2,6.27,16,8.13a16.13,16.13,0,0,0,6.59,1.12c1.8-.18,2,.62,1.39,2a103.43,103.43,0,0,1-5.31,11,11.6,11.6,0,0,0-1.54,3.91c-.05,4,.2,7.82,4.53,9.77a24.5,24.5,0,0,1-23.39,19.62,16.26,16.26,0,0,1-9.63-3,25.35,25.35,0,0,1-8.17-8.25,31.72,31.72,0,0,0,3.31-1.73c3.69-2.5,4.23-6.5,1.31-9.83-3.56-4.06-7.65-7.65-10.79-12.09-6.53-9.24-8.14-19.66-7.46-30.64C745.36,420.24,745.68,418.93,745.88,417.62Zm25.83,40.09c5.17,0,10-5.55,9.28-9.91-.24-1.55-1.14-1.73-2.32-1.11a32,32,0,0,1-14.34,3.64c-1.53,0-2,.77-1,2.06A12.61,12.61,0,0,0,771.71,457.72Zm-13.71-24c0-2.11-1.29-3.46-3.14-3.38a3.55,3.55,0,0,0-3.27,3.68c.13,2,1.07,3.29,3.24,3.33C756.74,437.34,758,435.84,758,433.67Zm4.34,8.28c.07-1.15.16-2.21.18-3.27,0-.79-.2-1.55-1.1-1.71s-1.33.57-1.54,1.3a17.19,17.19,0,0,0-.65,3.16c-.26,3.16,1.92,4.69,4.78,3.32,1.3-.62,3.18-1.36,2.17-3.2s-2.2,0-3.28.44A2.44,2.44,0,0,1,762.34,442Zm15.24-5.53c.1-2-.78-3.26-2.77-3.46-1.64-.17-3.19,1.64-3.21,3.49a3.14,3.14,0,0,0,3.27,3.29C777.14,439.75,777.62,438.3,777.58,436.42Z"/><path class="cls-11" d="M625.8,554.27c4.19-1,8.44-.37,12.66-.43,2.41,0,4.81.3,7.23.36,1.73,0,2.92.59,3.1,2.48a26.92,26.92,0,0,0,0,7.22,394.4,394.4,0,0,0,10.5,48.75,5.51,5.51,0,0,0,1.7,3.26c.47,3.17,2.53,5.45,4.48,7.74a19.38,19.38,0,0,1,3.15,4.65c0,2.09-.64,3.69-2.8,4.45a2.26,2.26,0,0,0-1.44,2.82,14.74,14.74,0,0,0,1.76,5.39,10.64,10.64,0,0,1,1.35,3.7c.64,3.37-.6,5.19-4,5.84-1.14.21-2.29.34-3.43.5-8-2-11.71-8-13.95-15.2-.86-2.77-1.38-5.65-2-8.5a75.07,75.07,0,0,0-7-18.86,159.26,159.26,0,0,0-6-15.83C626,580.29,624.93,567.43,625.8,554.27Z"/><path class="cls-10" d="M666.59,444.17c3.08-3.12,5.95-6.57,10.13-8.26,10.13-4.1,20.22-4.53,29.82,1.44,7.6,4.72,10.69,14.58,7.62,23.21-.33.94-.71,1.86-1.07,2.78a25.88,25.88,0,0,1-4.89,5.94,1.8,1.8,0,0,0-.65,2.66,3.25,3.25,0,0,1-2,4.2c-1.94.51-3.09-.55-3.45-2.3-.24-1.18-.63-1.44-1.8-1.31a36.73,36.73,0,0,1-8.2-.16c-4.72-.5-9.32-1.71-14-2.25-4.85-.56-7,.82-8.82,5.37-1,2.39-3.89,3.61-5.78,2a11.38,11.38,0,0,0-8.75-2.69,43.06,43.06,0,0,1-1.2-15C654.59,450.9,658.36,446.44,666.59,444.17Z"/><path class="cls-13" d="M666.59,444.17c-8.23,2.28-12,6.73-13.09,15.57a43.06,43.06,0,0,0,1.2,15c-.17.46-.32.94-.52,1.4-2.56,6-.56,11,5.45,13.59a29.1,29.1,0,0,0,3.24,1.24,2.23,2.23,0,0,1,1.72,1.58c.66,2.22,1.71,4.32,2.07,6.63-2.2,1-4.63,1.2-6.94,1.83-10.26,2.8-17.57,9.35-23.24,18-.63,1-1.23,2-1.85,2.93a44.94,44.94,0,0,1-1.54-7.19c.56-1.65,1.24-3.26,1.65-4.95,2.58-10.48,5-21,6.8-31.64s-.73-20-6.84-28.67a39.71,39.71,0,0,0-5-8.27,3.13,3.13,0,0,1-.34-3.81,165.85,165.85,0,0,1,14.17-23.36c.59-.79,1.06-1.68,1.59-2.52,4.49,3.25,7.77,7.62,10.88,12.09A98.24,98.24,0,0,1,666.59,444.17Z"/><path class="cls-11" d="M666.68,499.19c-.36-2.31-1.41-4.41-2.07-6.63a2.23,2.23,0,0,0-1.72-1.58,29.1,29.1,0,0,1-3.24-1.24c-6-2.57-8-7.57-5.45-13.59.19-.46.34-.93.52-1.4a11.38,11.38,0,0,1,8.75,2.69c1.89,1.65,4.8.44,5.78-2,1.87-4.54,4-5.93,8.82-5.37,4.7.54,9.3,1.75,14,2.25a36.73,36.73,0,0,0,8.2.16c1.18-.14,1.56.12,1.8,1.31.36,1.75,1.51,2.8,3.45,2.3a3.25,3.25,0,0,0,2-4.2,1.8,1.8,0,0,1,.65-2.66,25.88,25.88,0,0,0,4.89-5.94c7.19-1.3,9.3,4.69,7,11.22a8.72,8.72,0,0,1-3.3,4.26,9.36,9.36,0,0,0-3.93,6.57c-.77,4.65-2.24,9.17-3,13.84-2.38,4.39-4.78,8.79-9,11.75-8.72,6.13-20.29,4.68-27.8-3.29C670.64,505.07,669,501.9,666.68,499.19Zm25.62-5.87c-2.54,0-4.29-.05-6,0-1.46.06-1.85.86-1.33,2.2,1.4,3.67,5.92,6.3,10.59,6.11,3.57-.14,6.44-2.75,7.56-6.88.65-2.37-.09-3.22-2.48-2.54A29.12,29.12,0,0,1,692.3,493.32Zm4.59-5.6c2.68,0,4.52-1.34,4.51-3.2,0-2.65-1.91-5.23-4-5.3-.74,0-1.57-.11-2,.71-.49,1,.39,1.28,1,1.73.71.57,1.66,1.14,1.49,2.13s-1.4.47-2.09.78-1.92.61-1.83,1.73c.08,1,1.11,1.11,1.9,1.32A5.08,5.08,0,0,0,696.89,487.72Zm-8.24-11.48c-.16-1.41-.6-2.9-2.67-3a3.71,3.71,0,0,0-3.71,3.86,2.73,2.73,0,0,0,3,2.94C687.32,480,688.67,478.58,688.64,476.24Z"/><path class="cls-12" d="M483.33,384.3c7.22,2.7,11.49,8.11,13.9,15.21,0,.83,0,1.66.1,2.48,1.13,9-1.57,16.63-8.58,22.54-1.63,1.38-3.43,2.54-5.16,3.81a8.58,8.58,0,0,0-2.2-.09,30.58,30.58,0,0,1-15.6-.52,8,8,0,0,0-5-2.5c-4.19-3.76-7.71-8-9.59-13.42,0-1.16,0-2.33,0-3.49a25.4,25.4,0,0,1,3.78-15.23,10.76,10.76,0,0,0,1.89-6.29,4.43,4.43,0,0,1,2.84-4.52c1.87.36,3.78.6,5.3,1.94a2.42,2.42,0,0,0,2.36.48C472.61,383.12,478,383.35,483.33,384.3Zm-27.59,21.65c.36,1.73-.54,4.18,2.09,4.72a9.27,9.27,0,0,0,7.34-1.74c1.11-.79,1.35-1.79.17-2.64a56.83,56.83,0,0,1-6-5.61c-1.43-1.39-2.46-.81-2.93.81A13.23,13.23,0,0,0,455.74,405.95Zm18.59-6.7a3.48,3.48,0,0,0,3.34-3.51,3.4,3.4,0,0,0-3.62-3,3.16,3.16,0,0,0-3.3,3.25C470.73,398,472.18,399.26,474.33,399.25Z"/><path class="cls-9" d="M389.76,735.05c6.46-.33,12.89.49,19.33.65,2.89.07,5.78.3,8.67.46,4.62,6.2,10,11.75,15.19,17.44,3.26,3.55,6.64,7,8.49,11.61,1.54,3.8,2.07,7.82-2.26,11.14-2,1.55-4.33,1.56-6.63,1.59-11.48.17-21.08-4.77-29.87-11.48-3.71-2.83-7.82-5.45-10-9.82C389.16,749.8,388.53,742.54,389.76,735.05Z"/><path class="cls-9" d="M455.68,738.44c5.53-1,11.05-2,16.58-3,3.41-.59,6.7-1.83,10.21-1.89,4.71,6.58,11.46,11,17.2,16.53,3,3.42,6.61,6.3,8.8,10.43a12.75,12.75,0,0,1,1.67,5.66,7.61,7.61,0,0,1-5.77,7.65c-7.12,1.68-14.09.62-20.79-1.86-7-2.6-13.8-6-19.25-11.23C458.08,754.78,454.68,747.39,455.68,738.44Z"/><path class="cls-12" d="M801.91,689.83c8.71-.05,17.42-.08,26.13-.18,3,0,6-.29,8.94-.44-1.42,11.1-2.87,22.2-4.26,33.31-.69,5.51-1.28,11-1.92,16.55-2.16-4.36-5.88-6.62-10.42-7.76-3.89-1-11.25.42-12.84,4.72-1-11.08-2.94-22-4.16-33.09C802.9,698.57,802.69,694.17,801.91,689.83Z"/><path class="cls-12" d="M759.54,687.06c7.87.66,15.74,1.34,23.61,2,3.48.28,7,.43,10.46.64-.39,8.26-.68,16.54-1.22,24.79-.36,5.43-.27,10.92-1.57,16.26-8-2.54-15.59-1.63-22.56,3.26a1.52,1.52,0,0,1-.47.13C764.56,718.51,762,702.79,759.54,687.06Z"/><path class="cls-13" d="M592.58,680.74A250,250,0,0,0,618.85,679l14-1.91A354.17,354.17,0,0,1,625,717.17a7.88,7.88,0,0,0-3.24-2.23c-5.48-2.21-11.17-2.08-16.91-1.63a9.59,9.59,0,0,0-5.83,2.45c-1.77-2.74-2-5.91-2.58-9A218.65,218.65,0,0,1,592.58,680.74Z"/><path class="cls-10" d="M599,715.77a9.59,9.59,0,0,1,5.83-2.45c5.74-.45,11.43-.58,16.91,1.63a7.88,7.88,0,0,1,3.24,2.23c1.07,3.84.72,7.76.49,11.65-.26,4.41-2.84,7.69-6.15,10.14-6.53,4.83-13.22,9.52-21.14,11.9-3.82,1.15-7.67,1.29-11.41-.54a7.11,7.11,0,0,1-4.25-6.5c-.27-5,1.63-9.25,4.31-13.26A95.8,95.8,0,0,1,599,715.77Z"/><path class="cls-10" d="M548.68,717.35c.85,3.61.57,7.27.45,10.93-.16,4.54-2.63,7.94-6,10.5-6.29,4.76-12.83,9.21-20.41,11.79-4.78,1.63-9.46,1.66-13.93-1a7.81,7.81,0,0,1-2.69-5.91,17.9,17.9,0,0,1,1.35-7.53c2-5.08,5.66-9.12,8.76-13.51,2.92-3,5.4-6.39,9-8.66a35.44,35.44,0,0,1,12.12-.73C541.41,713.56,545.67,713.89,548.68,717.35Z"/><path class="cls-13" d="M548.68,717.35c-3-3.46-7.27-3.79-11.35-4.18a35.44,35.44,0,0,0-12.13.73l-.76-2.9-.54-2.26,0-.67a5.72,5.72,0,0,0-.56-2.74c-.53-5-1.79-9.84-2.76-14.75a2,2,0,0,0-.33-1.5,13.67,13.67,0,0,0-.3-4l-.24-1.5-.69-7.08c4.23.19,8.3,1.48,12.5,1.92,8,.83,16,1.22,24,1.6.82,0,1.64.16,2.46.24q-3.51,15.84-7,31.67A11.27,11.27,0,0,1,548.68,717.35Z"/><path class="cls-10" d="M483.58,428.33c1.72-1.26,3.53-2.43,5.16-3.81,7-5.92,9.71-13.5,8.58-22.54-.1-.82-.07-1.65-.1-2.48a15.25,15.25,0,0,1,4.13,5.23c3,5.37,5.46,11,7.93,16.64A191.39,191.39,0,0,1,517,446.79c.88,3.83.88,7.8,2.16,11.54l-.41.54c-1.3-.22-2.59-.53-3.9-.65-8.17-.74-16.32-1.69-24.53-2,0-1.66-.08-3.32-.15-5A48.6,48.6,0,0,0,483.58,428.33Z"/><path class="cls-9" d="M807.55,736c1.59-4.3,8.95-5.69,12.84-4.72,4.54,1.14,8.26,3.41,10.42,7.76a61.74,61.74,0,0,1-4.33,28.54c-2.26,5.77-8.46,9.7-15.45,7a6.87,6.87,0,0,1-4.6-4.81c-1.68-6.2-1.47-12.52-1.16-18.82C805.53,745.95,805.8,740.87,807.55,736Z"/><path class="cls-12" d="M835.55,554.79c-.82-9.05-.33-18.11.1-27.15a119.47,119.47,0,0,1,4.29-27.53c1.24-4.31,2.64-8.57,4-12.86a157.61,157.61,0,0,1,13,34.94c1.7,6.69.48,12.69-4.28,17.81a112.33,112.33,0,0,1-15.5,14A9.91,9.91,0,0,1,835.55,554.79Z"/><path class="cls-9" d="M767.8,734.11a1.52,1.52,0,0,0,.47-.13c7-4.89,14.51-5.8,22.56-3.26,1.68,6.82,1.64,13.45-3.42,18.93-5.71,6.19-11.91,12-20.52,13.75-4.56.93-9.16.43-12.16-4-.66-1-.84-.2-1.19.16-1.3-.91-1.13-1.76.11-2.56.56-4.69,2.93-8.58,5.65-12.24S765,737.65,767.8,734.11Z"/><path class="cls-13" d="M519.18,458.33c-1.29-3.74-1.28-7.71-2.16-11.54a191.39,191.39,0,0,0-7.73-25.41c3.15-3.63,6.21-7.36,10.43-9.86,4.16,7.33,6.64,15,4.87,23.57a54.38,54.38,0,0,1-1.51,6.05c-1.53,4.64-1.24,9.35-.84,14.08l-.82,1-1.21,1.56Z"/><path class="cls-10" d="M142.38,246a79.06,79.06,0,0,0,10.71,8.51,6.38,6.38,0,0,1,3.14,5.83,103.78,103.78,0,0,0,4.45,27.5c-1.53-.49-2.29-1.87-3.24-3-4.78-5.51-8.94-11.59-11.09-18.49C144.3,259.86,142.42,253.09,142.38,246Z"/><path class="cls-10" d="M279,288.7c3.38-7.87,5.64-16.11,8.05-24.3.21-.7.28-1.49,1.08-1.86a46.41,46.41,0,0,0,17-14.11c0-.05.15-.05.23-.07-1,6.67-4,12.63-6.93,18.58a56.17,56.17,0,0,1-15.92,19.53A9.52,9.52,0,0,1,279,288.7Z"/><path class="cls-10" d="M483.33,384.3c-5.37-.94-10.72-1.17-16,.4a2.42,2.42,0,0,1-2.36-.48c-1.52-1.34-3.43-1.59-5.3-1.94a38.41,38.41,0,0,0-7.43-3,1.52,1.52,0,0,1,.82-1.44c4.14-2.46,7.24-6,10.11-9.76C470.07,373.2,476.87,378.54,483.33,384.3Z"/><path class="cls-12" d="M735.06,507.28c-6-6.19-13.56-7.9-21.8-7.7.61-1.61,2.22-2.18,3.44-3.09a80.49,80.49,0,0,1,11.49-7.8A151,151,0,0,1,735.06,507.28Z"/><path class="cls-10" d="M305.33,248.42a1,1,0,0,1,.5-1Z"/><path class="cls-10" d="M385.45,541.19c-2.19-14-3.13-28.15-6.27-42a61.08,61.08,0,0,1,6.66-1.84c2.1-.35,2.45-1.4,2.22-3.23-.51-4-2-7.81-3-11.72-.24-1-.41-1.93-.61-2.89a7.45,7.45,0,0,1,.78.61,149.7,149.7,0,0,0,24.55,20.27c7.24,4.82,15.16,4.32,21.35-1.66,1.79-1.73,3.73-3.34,5.39-5.19a5.66,5.66,0,0,1,5-2c9.53.58,19.07,1.1,28.62,1.5a165.43,165.43,0,0,0,27.61-.89,108.62,108.62,0,0,1-.41,21.68c-.55,4.77-1.16,9.53-1.75,14.3l0,0c-.47-.15-.35.23-.4.45.06,1.46-1.54,2.18-1.6,3.58l-1,.42a3.59,3.59,0,0,0-2.45.6l-1.71.55c-19.08,4.38-38.6,4.41-58,5.84-10.2.75-20.42,1.3-30.64,1.89A125.31,125.31,0,0,1,385.45,541.19Z"/><path class="cls-11" d="M497.83,492.22a165.44,165.44,0,0,1-27.61.89c-9.54-.4-19.08-.93-28.62-1.5a5.66,5.66,0,0,0-5,2c-1.66,1.85-3.59,3.46-5.39,5.19-6.19,6-14.12,6.48-21.35,1.66a149.7,149.7,0,0,1-24.55-20.27,7.45,7.45,0,0,0-.78-.61l-1.72-10c5.7-4.29,12.08-7.38,18.45-10.47a31.12,31.12,0,0,1,3.48-1.22,20.33,20.33,0,0,1,2.75,1.68c3.37,2.84,6.78,5.65,10,8.68,1.66,1.57,2.67,1.47,4.26-.09,4.21-4.13,8.62-8.06,12.91-12.11,5.43-5.14,10.95-10.2,15.52-16.17a12.11,12.11,0,0,0,2.64-7.38,8.61,8.61,0,0,1,2.65-6.17l5.35-1a8,8,0,0,1,5,2.5c4,3.05,4,7.63,3.72,11.81a46.28,46.28,0,0,1-8.16,23c-2,2.91-4.47,5.5-6.32,9.21,2.92-.73,5.3-1.35,7.69-1.91,8-1.85,15.82-4.37,23.76-6.43,2.64-.68,3.74-2.06,3.33-4.75a3,3,0,0,1,.54-2.37c8.21.28,16.36,1.23,24.53,2,1.31.12,2.6.43,3.9.65l-.1,7.38a25.39,25.39,0,0,0-.42,7l-.1,1-2.45,8.48-.61,1L513.15,486c-.48.23-.94.49-1,1.09l0,0a1.7,1.7,0,0,0-1.49,1.05A73.54,73.54,0,0,1,497.83,492.22Z"/><path class="cls-11" d="M743.56,581.16a8.61,8.61,0,0,1-3.27-3.33A106.45,106.45,0,0,1,728.14,555c-.46-5.19-.46-5.18,4.65-6.45l12.07-3A306.9,306.9,0,0,1,744,580,4.1,4.1,0,0,1,743.56,581.16Z"/><path class="cls-10" d="M192.84,272.53q0-.87,0-1.75c0-3.77.72-4.28,4-2.15,12.77,8.39,26.77,9.74,41.41,7.48,2.05-.32,2.61.36,2.28,2.24-1.94,10.92-11.73,21.59-24.95,19.59a45.84,45.84,0,0,1-10.08-2.59C199.29,292.91,192.11,281.53,192.84,272.53Z"/><path class="cls-10" d="M208.37,247.35a12.26,12.26,0,0,1,1.33-6.66,5.86,5.86,0,0,1,2.46-2.72c1.07-.53,2.16-1,3.27-.13a2.76,2.76,0,0,1,.84,3.16c-.43,1.6-1,3.17-1.47,4.76-.69,2.3,0,4.61,1.71,5.47,2,1,4,.44,5.63-1.64,1.05-1.39,2-2.82,3.1-4.2.79-1,1.79-1.91,3.17-1.31a3.53,3.53,0,0,1,2.09,3.15c.42,4.72-4,10.71-8.72,11.33-4.08.54-7.89-.06-11-3.32C208.69,253,208.16,250.36,208.37,247.35Z"/><path class="cls-10" d="M204.44,223.44c0,5.54-3.47,9.47-8.38,9.49a8.36,8.36,0,0,1-8-8c.05-5.62,3.62-9.88,8.33-10C200.72,215,204.44,218.87,204.44,223.44Z"/><path class="cls-10" d="M242.3,229.81c.12-5.41,3.15-8.12,8.89-7.94a7,7,0,0,1,6.46,7.08c-.15,6.05-3,9.5-7.64,9.37S242.19,234.79,242.3,229.81Z"/><path class="cls-13" d="M554,390.63c-.07-1.45-1.3-2.05-2.15-2.92-9.45-9.69-14.1-21.4-14.71-34.82,0-.12.15-.25.35-.55a11.9,11.9,0,0,0,8.72,3.48A9.84,9.84,0,0,0,554.4,351c.73-1.11,1.54-2.17,2.23-3.31a3.38,3.38,0,0,1,4.26-1.63,3.7,3.7,0,0,1,2.9,3.86,20.39,20.39,0,0,0,.54,5.7c2.37,8.43,12.08,11.14,18.41,5.12a21,21,0,0,0,3.61-4.45c.38-.64.68-1.29,1.53-1.52,2.52-.71,3.07-.24,3,2.36a20.29,20.29,0,0,0,5.61,14.78c.79.86,1.07,1.3.12,2.35-2.75,3-4.13,6.78-5,10.72-2.72,1.75-5.41,3.55-8.17,5.24A6.63,6.63,0,0,0,580.8,394c-2.23,6.17-4.56,12.29-7.12,18.33-.67,1.59-1.36,1.89-3,1.2-7.79-3.34-11.89-9.77-14.74-17.3C555.28,394.38,554.63,392.5,554,390.63Zm4.76-9.4c3.69-.45,7-1.83,9.34-4.93a1.92,1.92,0,0,0,.52-2.06c-.38-.77-1.11-.51-1.76-.51a31.86,31.86,0,0,1-9.05-1.42c-2.48-.76-4.75-2-7.12-2.93-.77-.31-1.66-1.08-2.5-.15s-.33,1.78,0,2.58a56.27,56.27,0,0,0,2.54,5.11C552.45,380,555.31,381,558.71,381.23Zm-4.33-15.14a8,8,0,0,0,3.9-.87c1.07-.6,2.46-1.1,1.76-2.75-.82-2-2-.6-3-.23-.66.23-1.31,1-2,.29s-.35-1.53,0-2.28c.82-1.53,1.69-3,2.48-4.59.4-.78.5-1.68-.39-2.2s-1.45.15-1.9.73a21.78,21.78,0,0,0-3.88,7.44A3.35,3.35,0,0,0,554.37,366.09Z"/><path class="cls-14" d="M452.76,432.41a12.11,12.11,0,0,1-2.64,7.38c-4.58,6-10.09,11-15.52,16.17-4.29,4.05-8.7,8-12.91,12.11-1.59,1.56-2.6,1.66-4.26.09-3.19-3-6.6-5.84-10-8.68a20.33,20.33,0,0,0-2.75-1.68c.53-1.2,0-2.23-.47-3.29-2.84-6.07-5.61-12.17-8.5-18.22a2.34,2.34,0,0,1,.8-3.36c2.21-1.74,4.27-3.66,6.39-5.51,1.24-.83,2.53-1.59,3.7-2.5a28.61,28.61,0,0,1,7.64-4.12c2.6-1,4.76-.9,6.84,1.47,4.66,5.29,9.57,10.37,14.4,15.51,2.35,2.49,3.17,2.55,5.89.58C444.9,435.83,448.4,433.3,452.76,432.41Z"/><path class="cls-12" d="M452.76,432.41c-4.36.89-7.86,3.41-11.36,5.94-2.72,2-3.54,1.91-5.89-.58-4.83-5.14-9.74-10.21-14.4-15.51-2.08-2.36-4.24-2.44-6.84-1.47a28.61,28.61,0,0,0-7.64,4.12c-1.17.91-2.47,1.67-3.7,2.5q2.25-10,4.51-20.06c.76-3.38,3-5.61,5.78-7.44.68-.45,1.51-.74,1.64-1.71a3.61,3.61,0,0,0,2.53.8,8.71,8.71,0,0,1,8.73,4.7c1.68,3.25,4.37,4.84,7.2,6.52,1.78,1.06,3.55,2.16,5.32,3.24l16.77,12.77A8.6,8.6,0,0,0,452.76,432.41Z"/><path class="cls-15" d="M438.65,413.47c-1.77-1.08-3.54-2.17-5.32-3.24-2.83-1.69-5.52-3.27-7.2-6.52a8.71,8.71,0,0,0-8.73-4.7,3.61,3.61,0,0,1-2.53-.8,129.13,129.13,0,0,1-7.25-16.87c-.94-2.78-.85-2.85,2-3,2.22-.09,4.43-.32,6.65-.49a2.92,2.92,0,0,0,.64,3,45.31,45.31,0,0,0,12.26,11.87,19,19,0,0,0,16.91,2,4.59,4.59,0,0,0,3.38-4.14c.31-3,.88-6.06,1.3-9.1.14-1,.2-2,1.49-2.25a38.41,38.41,0,0,1,7.43,3,4.43,4.43,0,0,0-2.84,4.52,10.76,10.76,0,0,1-1.89,6.29,25.4,25.4,0,0,0-3.78,15.23c0,1.16,0,2.33,0,3.49C447,412.74,442.67,411.74,438.65,413.47Z"/><path class="cls-13" d="M589.72,349.44c-1.3.31-1.58-.4-2-1.23-3.21-7-14.76-9.93-20.82-5.27a1.73,1.73,0,0,1-2.4.12c-.61-.42-1.38-1-2-1-4.21.62-6.1-2.22-8.54-4.88-2.6-2.84-6.5-3.54-10.35-3.46-1.52,0-1.85-.37-1-1.64l4.48-6.6c.55-.81,1-1.07,2-.36,6.64,4.81,14.34,6.81,22.25,8.17a88.63,88.63,0,0,0,12.1,1.58,2.87,2.87,0,0,1,2.68,1.84,13.51,13.51,0,0,0,6.15,6.64,1.33,1.33,0,0,1,.67,2.18C592.09,347.1,592.73,350,589.72,349.44Z"/><path class="cls-13" d="M567.92,350.86c.08-4.7,1.82-6.27,6.5-6a13.88,13.88,0,0,1,7.75,3.06c1,.75,1.74,1.72,1.43,3-.86,3.49-2.33,6.62-6,8C572.43,361,567.81,357.12,567.92,350.86Zm1.74.35c0,2.89,1.25,4.49,3.29,4.53,1.87,0,3-1.38,2.93-3.83s-1.47-4.08-3.58-3.93S569.78,349.8,569.65,351.21Z"/><path class="cls-13" d="M538.46,344.59c.07-5.51,2.29-7.33,7.67-6.28.49.1,1,.19,1.45.32,4.38,1.27,5.93,3.16,5.31,6.46-.78,4.17-4.34,7.18-7.95,6.73A7,7,0,0,1,538.46,344.59Zm8,.55c0-2.65-1.55-4.61-3.37-4.43-2.13.22-2.51,1.92-2.57,3.64-.08,2.26,1.39,3.86,3.36,3.76S546.43,346.56,546.5,345.14Z"/><path class="cls-10" d="M454.18,354.25c0,3-1.3,4.65-3.51,4.91s-6.14-1.65-6.6-3.28c-.33-1.15.31-1.76,1.37-1.88a2.53,2.53,0,0,1,1.38.42c1.1.63,2.16,2.23,3.45,1.15s.43-2.65.05-4c-.54-1.91-1.2-3.79-1.77-5.7a11.18,11.18,0,0,1-.62-2.66c-.05-1.18-.38-2.86,1.24-3.09s1.81,1.32,2.13,2.56c.54,2.09,1.17,4.15,1.79,6.22A16.4,16.4,0,0,1,454.18,354.25Z"/><path class="cls-10" d="M455.16,340.56c0-2.49,1.25-4.16,3.23-4.24s3.75,1.83,3.79,4.38a3.78,3.78,0,0,1-3.7,3.88C456.35,344.66,455.18,343.24,455.16,340.56Z"/><path class="cls-10" d="M443.48,366.77c-2.38.3-4.57-.73-6.69-1.9-.9-.49-1.76-1.29-1.18-2.41s1.76-.81,2.64-.32c3.08,1.73,6.38,1.58,9.71,1.32.88-.07,1.95-.43,2.2.91s-.68,1.57-1.59,1.85A12.53,12.53,0,0,1,443.48,366.77Z"/><path class="cls-10" d="M438.34,339.78a3.64,3.64,0,0,1-3.66,3.85c-2.1,0-3.38-1.44-3.39-3.74,0-2.5,1.24-3.89,3.49-3.89S438.36,337.25,438.34,339.78Z"/><path class="cls-10" d="M771.71,457.72a12.61,12.61,0,0,1-8.4-5.32c-1-1.3-.51-2,1-2.06a32,32,0,0,0,14.34-3.64c1.18-.62,2.07-.44,2.32,1.11C781.68,452.17,776.88,457.76,771.71,457.72Z"/><path class="cls-10" d="M758,433.67c0,2.16-1.26,3.67-3.17,3.63-2.16,0-3.11-1.35-3.24-3.33a3.55,3.55,0,0,1,3.27-3.68C756.72,430.21,758,431.56,758,433.67Z"/><path class="cls-10" d="M762.34,442a2.44,2.44,0,0,0,.55,0c1.08-.44,2.25-2.34,3.28-.44s-.87,2.58-2.17,3.2c-2.86,1.36-5-.16-4.78-3.32a17.19,17.19,0,0,1,.65-3.16c.2-.73.59-1.47,1.54-1.3s1.12.92,1.1,1.71C762.5,439.74,762.4,440.8,762.34,442Z"/><path class="cls-10" d="M777.58,436.42c0,1.88-.44,3.32-2.72,3.33a3.14,3.14,0,0,1-3.27-3.29c0-1.86,1.58-3.66,3.21-3.49C776.79,433.17,777.68,434.45,777.58,436.42Z"/><path class="cls-10" d="M692.3,493.32a29.12,29.12,0,0,0,8.32-1.09c2.39-.68,3.12.17,2.48,2.54-1.12,4.13-4,6.73-7.56,6.88-4.67.19-9.19-2.44-10.59-6.11-.51-1.34-.12-2.15,1.33-2.2C688,493.27,689.76,493.32,692.3,493.32Z"/><path class="cls-10" d="M696.89,487.72a5.08,5.08,0,0,1-1-.11c-.79-.21-1.82-.37-1.9-1.32-.1-1.11,1-1.36,1.83-1.73s1.9.35,2.09-.78-.78-1.56-1.49-2.13c-.56-.45-1.44-.76-1-1.73.41-.82,1.25-.73,2-.71,2,.07,3.94,2.65,4,5.3C701.4,486.38,699.56,487.77,696.89,487.72Z"/><path class="cls-10" d="M688.64,476.24c0,2.34-1.32,3.8-3.37,3.8a2.73,2.73,0,0,1-3-2.94,3.71,3.71,0,0,1,3.71-3.86C688,473.33,688.48,474.83,688.64,476.24Z"/><path class="cls-14" d="M490.34,456.24a3,3,0,0,0-.54,2.37c.41,2.68-.69,4.06-3.33,4.75-7.94,2.06-15.76,4.58-23.76,6.43-2.39.55-4.77,1.18-7.69,1.91,1.85-3.71,4.34-6.3,6.32-9.21a46.28,46.28,0,0,0,8.16-23c.31-4.18.29-8.76-3.72-11.81a30.59,30.59,0,0,0,15.6.52,8.58,8.58,0,0,1,2.2.09,48.61,48.61,0,0,1,6.62,22.93C490.26,452.92,490.3,454.58,490.34,456.24Z"/><path class="cls-14" d="M438.65,413.47c4-1.73,8.4-.73,12.53-1.67,1.88,5.42,5.4,9.66,9.59,13.42l-5.35,1Z"/><path class="cls-10" d="M455.74,405.95a13.23,13.23,0,0,1,.65-4.46c.47-1.61,1.5-2.19,2.93-.81a56.83,56.83,0,0,0,6,5.61c1.18.85.94,1.85-.17,2.64a9.27,9.27,0,0,1-7.34,1.74C455.2,410.13,456.1,407.68,455.74,405.95Z"/><path class="cls-10" d="M474.33,399.25c-2.15,0-3.6-1.29-3.59-3.22a3.16,3.16,0,0,1,3.3-3.25,3.4,3.4,0,0,1,3.62,3A3.48,3.48,0,0,1,474.33,399.25Z"/><path class="cls-13" d="M502.5,522.64l-.32.48L501,524.63c-1.69,1.29-2.8,3.44-5.28,3.56.58-4.77,1.2-9.53,1.75-14.3a108.62,108.62,0,0,0,.41-21.68,73.65,73.65,0,0,0,12.75-4.07l-.1,1.57a4.25,4.25,0,0,0-.23,2.5l-.17,2a5.25,5.25,0,0,0-.35,3l-.21,2a2.94,2.94,0,0,0-.28,2l-.13,1a126.4,126.4,0,0,1-4.53,16.93l-.54,1-.41.76Z"/><path class="cls-13" d="M495.72,528.15l-.4.45C495.37,528.38,495.25,528,495.72,528.15Z"/><path class="cls-10" d="M558.71,381.23c-3.4-.18-6.26-1.28-8-4.31a56.27,56.27,0,0,1-2.54-5.11c-.36-.81-.77-1.76,0-2.58s1.73-.16,2.5.15c2.37,1,4.64,2.17,7.12,2.93a31.86,31.86,0,0,0,9.05,1.42c.65,0,1.38-.26,1.76.51a1.92,1.92,0,0,1-.52,2.06C565.68,379.4,562.4,380.78,558.71,381.23Z"/><path class="cls-10" d="M554.37,366.09a3.35,3.35,0,0,1-3.06-4.44,21.78,21.78,0,0,1,3.88-7.44c.44-.58,1.08-1.2,1.9-.73s.79,1.41.39,2.2c-.79,1.55-1.66,3.05-2.48,4.59-.4.75-.79,1.56,0,2.28s1.38-.06,2-.29c1.06-.38,2.23-1.72,3,.23.69,1.65-.7,2.15-1.76,2.75A8,8,0,0,1,554.37,366.09Z"/><path class="cls-10" d="M569.65,351.21c.12-1.41.46-3.09,2.64-3.23s3.54,1.53,3.58,3.93-1.06,3.88-2.93,3.83C570.9,355.69,569.65,354.1,569.65,351.21Z"/><path class="cls-10" d="M546.5,345.14c-.08,1.42-.5,2.87-2.58,3s-3.44-1.5-3.36-3.76c.06-1.71.43-3.42,2.57-3.64C545,340.52,546.48,342.49,546.5,345.14Z"/></svg>