<svg id="Layer_1" data-name="Layer 1" xmlns="http://www.w3.org/2000/svg" viewBox="0 0 900 796"><defs><style>.cls-1{fill:#f99602;}.cls-2{fill:#feb800;}.cls-3{fill:#faf7d9;}.cls-4{fill:#2d69ea;}.cls-5{fill:#47341f;}.cls-6{fill:#473421;}.cls-7{fill:#85aaf0;}.cls-8{fill:#faf7d8;}.cls-9{fill:#ecb6e2;}.cls-10{fill:#836245;}.cls-11{fill:#f8d573;}.cls-12{fill:#483520;}.cls-13{fill:#b68c6b;}.cls-14{fill:#f78900;}</style></defs><title>SquareArtboard 9 copy 4</title><rect class="cls-1" x="52" y="-52" width="796" height="900" transform="translate(848 -52) rotate(90)"/><path class="cls-2" d="M469.44,415.23c2.29-1.37,3-3.93,4.25-6a208.56,208.56,0,0,1,20-26.69c11.23-12.75,25.12-21.83,40.27-29.17a5.13,5.13,0,0,0,2.26-1.5A4.58,4.58,0,0,0,539,351c11.16-5.41,22.91-9.18,34.8-12.55a11.36,11.36,0,0,1,5.39-.53c1.26,5.94,2.65,11.84,3.76,17.81,4,21.35,8.81,42.54,11.79,64.07.11.82.18,1.69,1.12,2.08.77,7.95,1.45,15.9,2.31,23.83,2.23,20.5,4.85,40.94,7.65,61.37,3,22.16,6.19,44.3,9.29,66.45-.75,0-1.5.1-2.24.11-10.62,0-21-2-31.4-3.79-2-.36-2.88.08-3.36,2-1,3.87-2.07,7.71-3.1,11.57-3,11.16-6.41,22.22-8.66,33.58-.39,2-.19,3.07,1.92,3.73,7.38,2.29,14.65,5,22.16,6.85,11.13,2.81,22.42,4.9,33.64,7.28,2.25,15.81,4.47,31.63,6.8,47.43.31,2.11,0,2.75-2.29,2.63-16.86-.9-33.73-1.87-50.41-4.63q-21.29-3.53-42.42-8c-15.62-3.29-31.38-6-46.68-10.76-8.58-2.65-17.35-4.7-26-7-1.24-.33-2.43-.66-2.8-2.11-.09-.57-.15-1.15-.28-1.72a542.62,542.62,0,0,1-14.16-118c-.26-22.27,1-44.42,5.43-66.31A236.66,236.66,0,0,1,459,438.56c.85-2,1.66-4,2.55-5.93Q465.49,423.92,469.44,415.23Z"/><path class="cls-3" d="M460.26,652.46c.37,1.45,1.57,1.78,2.8,2.11,8.69,2.31,17.45,4.35,26,7,15.31,4.74,31.06,7.47,46.68,10.76q21.12,4.44,42.42,8c16.67,2.76,33.54,3.74,50.41,4.63,2.25.12,2.61-.52,2.29-2.63-2.33-15.8-4.55-31.62-6.8-47.43.9.08,1.82.11,2.71.25,7.5,1.19,15,2.43,22.59,2.95q-.53,6-1.07,11.93-1.56,17.64-3.13,35.29c-.1,1.15-.19,2,1.45,2.21,12.8,1.45,25.59,3,38.39,4.51l48.29,5.73Q753,700.1,772.7,702.5c1.6.2,2.28-.06,2.54-1.89,1.24-8.88,2.67-17.74,4-26.61,4.93-1.17,9.83-2.48,14.8-3.52,2.54-.53,5.27-.87,7.37-2.72,3.88,16,5.84,32.34,7.49,48.7,1.76,17.38,2.05,34.83,2.15,52.29.05,8.89,0,18.36,0,27.25-1.08,0-2.16,0-3.25,0H450.49c-1.08,0-2.16,0-3.25,0-.19-12.65-.2-25.89-.61-38.53-.86-26.38.61-52.56,6.15-78.42C454.72,670,456.83,661.06,460.26,652.46Z"/><path class="cls-4" d="M460.26,652.46c-3.43,8.6-5.55,17.57-7.48,26.58-5.54,25.87-7,52-6.15,78.42.41,12.64.42,25.88.61,38.53q-69.9,0-139.8,0c-.33,0-.66,0-1,0-1.11-12.9.05-26.41.23-39.3.41-28.89,5.87-57.07,11.47-85.24,3.05-15.35,5.6-30.77,7.4-46.32,2.16,3.15,4.05,6.49,6.62,9.36s5.54,5,9.75,4.25c5.15-1,9.58-2.83,11.07-8.58a26.53,26.53,0,0,0,.16-11.13,341.23,341.23,0,0,0-8.18-35,453.05,453.05,0,0,1-10-44.76,47.17,47.17,0,0,1,2.47-25.72,194.09,194.09,0,0,0,8.72-25.88c3.53-14.52,3.08-29,1.41-43.64a13.24,13.24,0,0,0-3.84-8.45c0-.84.57-1.08,1.19-1.38,2.75-1.32,5.5-2.67,8.24-4l10.61-1.82a78.17,78.17,0,0,0,4,13.89c4.9,12.3,12.31,22.32,25.09,27.61,8.82,3.65,17.7,4.46,26.39.62,7.5-3.31,13.24-9,17.58-16.1a83.84,83.84,0,0,0,8.81-20.56,7.47,7.47,0,0,0,2.65,1.25c3.54,1.28,7.4,1.59,10.74,3.48a236.63,236.63,0,0,0-7.78,27.86c-4.43,21.89-5.7,44-5.43,66.31a542.62,542.62,0,0,0,14.16,118C460.11,651.31,460.17,651.89,460.26,652.46Z"/><path class="cls-5" d="M194.38,775.43c-4.64,4.27-10.58,4-16.23,4.39-12,.77-23-2.51-33.37-8.44-5.36-3.06-10.78-5.93-15.24-10.3-3.78-3.7-5.95-7.88-6-13.43-.11-17.49-2.05-34.88-3.31-52.3a528.87,528.87,0,0,1-.79-53.16c.45-15.72.39-31.47,1-47.18.74-18,1.45-35.93,1.61-53.9a4.57,4.57,0,0,1,1.49,2.53c.87,2.61,1.79,5.2,2.59,7.82.45,1.48,1.1,1.75,2.55,1.13a87.83,87.83,0,0,0,10.78-5.74c3.91-2.36,7.68-5,11.47-7.53,1.84-1.24,2.82-2.71,2.17-5.23-.83-3.2-1.11-6.54-1.63-9.82,12.44.66,24.89,1.17,37.33,2,20.41,1.29,40.84,1.81,61.29,1.12-.58,3-2.11,5.58-3.2,8.36-.53,1.34-1.08,2.73.28,3.89,6.37,5.44,12.76,10.84,19.14,16.28,1,.82,1.65.88,2.35-.35q2-3.45,4.14-6.8c3.14-4.87,6-9.93,9.65-14.46,0,6.16-.54,12.28-.86,18.42-.62,11.79-2,23.52-2.8,35.29-.76,11.53-1.66,23-3.17,34.49-1.37,10.38-2.47,20.79-3.78,31.17a386.85,386.85,0,0,1-6.68,39.28c-2,8.57-3.46,17.26-5.2,25.89-.26,1.28.43,1.78,1.31,2.36A184.36,184.36,0,0,1,279.59,735a52.88,52.88,0,0,1,8.92,10.37c3.53,5.09,1.87,10.51-1.42,14.72a13.56,13.56,0,0,1-11.66,5.59c-1.66,0-3.32.13-5,.21-1-.11-2-.27-3-.31a61.31,61.31,0,0,1-22-5c-4.25-1.87-8.54-3.68-12.74-5.66a34.28,34.28,0,0,1-13.71-11.24A76,76,0,0,1,212.59,732c-.39-2.83-1.5-4.89-4.62-5.66-1.81-.45-3.42-1.68-5.12-2.56a1.89,1.89,0,0,1-1.15-2.22c1.4-8.63,1.94-17.37,3.56-26A90.24,90.24,0,0,0,207,671.48c-.3-3.73-.44-7.48-.59-11.22-.67-16.8-.54-33.62-1.55-50.41,0-.81.55-2.51-1.08-2.15-1.41.32-3.67-.54-4.12,1.84-1,5.14-1.92,10.3-2.74,15.47-2.78,17.5-4.38,35.16-7.11,52.67-2.66,17-2.49,34.17-2.21,51.32.09,3.23.12,6.47.28,9.7.07,1.46-.46,2.08-1.93,2.23-2.14.21-4.27.59-6.4.93-.78.12-1.93-.4-2.26.45s.88,1.21,1.44,1.75c5.69,5.42,12.12,10.12,16.24,17.06C197.75,765.79,197.58,771.77,194.38,775.43Z"/><path class="cls-6" d="M579.22,338a11.36,11.36,0,0,0-5.39.53c-11.89,3.37-23.64,7.14-34.8,12.55a4.58,4.58,0,0,1-2.8.85c-6.25-10.63-9.53-22.26-11.57-34.3-2-11.81-1.71-23.7-1.24-35.6.21-5.49.5-11,.49-16.46,0-4.06-1.49-7.83-3.22-11.45A104.6,104.6,0,0,1,511,223c-1-7.28.26-14.44,2.08-21.49,2-7.65,4.25-15.24,4.88-23.17.84-10.58,5.9-19.35,12.19-27.44,10.25-13.17,23.32-22.42,39-28.41,14.12-5.4,28.47-9.37,43.6-9.77a109,109,0,0,1,29,2.65c11.9,2.92,23.65,6.29,34.91,11.13a64,64,0,0,1,29.74,25.35,110.32,110.32,0,0,1,14.82,36.6c2,9.94,1,19.88-.91,29.75-.95,4.81-1.69,9.67-2.77,14.45a27.73,27.73,0,0,0,1.17,15.71,116.74,116.74,0,0,1,6.54,27.37c.88,8.87-.52,17.55-2.81,26.16-4.12,15.52-11.2,29.68-19.42,43.34-8.66-3.86-17.37-7.64-26.38-10.62-3-1.32-6-2.51-8.86-4-8.57-4.37-11.63-10.56-10.34-20,.89-6.59,3.42-12.68,5.6-18.86,9.14-25.8,10.64-52.12,6.05-79-.59-3.43-2.19-4.7-5.37-5.26-7.05-1.23-13.38-4.28-19.49-8a132,132,0,0,1-15.73-11.4c-1.05-.87-1.85-1.17-3.19-.14-9.77,7.48-20.83,12.41-32.52,15.94-11,3.31-22.25,3.87-33.62,3.52a16.68,16.68,0,0,0-5.21.37c-1.2.34-1.89.91-1.82,2.25.58,10.62,0,21.3,2,31.84,4.1,21.66,11.23,41.93,26.31,58.66a35.17,35.17,0,0,1,8.9,21.46C590.06,330.66,587.31,335.18,579.22,338Z"/><path class="cls-2" d="M676.61,334.59c9,3,17.72,6.76,26.38,10.62,14.24,7.61,28.18,15.7,41,25.53,5.79,4.43,10.44,10,15.26,15.35a137.24,137.24,0,0,1,9.33,11.66c3.52,4.9,6.08,10.31,8.76,15.63,3.7,7.34,7.1,14.85,10.14,22.49,5.07,12.75,11,25.12,15.93,37.93,7.67,20,15.84,39.84,23.31,59.95,4.35,11.71,8.23,23.56,11.9,35.47a81,81,0,0,1,3.25,30.34c-.47,6-3,11.34-5.77,16.62-4,7.63-10.57,12.65-17,17.87a94.73,94.73,0,0,1-18.61,11.5c-2,.95-2.61,2.07-2.09,4.32,1.37,5.9,1.24,12.06,3,17.9-2.1,1.85-4.83,2.19-7.37,2.72-5,1-9.86,2.35-14.8,3.52q4.36-29.37,8.72-58.74,5.66-38,11.36-76c.56-3.72.61-3.68-3.29-4.05-4.88-.47-9.75-1-14.62-1.5a28.51,28.51,0,0,0,1.11-6.11c0-3.7-1.17-5.36-4.65-6.39a33,33,0,0,0-8.06-1.54,39.69,39.69,0,0,1-22.79-8.19c-7.67-5.71-16.36-5.58-24.9-2.09a38.68,38.68,0,0,1-19.22,3c-3-.33-5.95-.7-8.93-.9-5.35-.35-8.12,2.16-8.37,7.53-.09,1.91,0,3.82.07,5.73a55.79,55.79,0,0,1-8.15-.67q-1.33-19.43-2.66-38.86c-1.5-21.84-3-43.68-3.92-65.55a16.67,16.67,0,0,0,.2-5c-.27-10.33-.06-20.67.69-30.94C673.06,367.33,675,351,676.61,334.59Z"/><path class="cls-7" d="M250.16,527.33c-20.45.69-40.89.17-61.29-1.12-12.44-.79-24.89-1.29-37.33-2-.64-3.6-1.26-7.21-1.93-10.8-3-16.43-6.54-32.76-10.24-49.06a7.4,7.4,0,0,1-.14-3c1.64-9.61,2-19.32,2.32-29,.07-1.94-.57-2.54-2.39-2.9-9.61-2-19.32-3.49-28.85-5.86-4.59-1.14-9.18-2.25-13.77-3.38-1.81-1.15-4.69-1.5-5.29-3.37s1.53-3.66,2.45-5.5a130.08,130.08,0,0,1,24.79-34.13,5.72,5.72,0,0,0,.81-.55,97.79,97.79,0,0,1,29.61-19.76c4.1-1.75,8.4-3,12.32-5.19,3.43-.27,6.55-1.74,9.81-2.65.06.66.14,1.32.16,2,.33,8.54,2,16.71,6.91,23.9,3.16,4.65,6.93,8.71,12.37,10.78h0a1,1,0,0,0,.92.67l-.05-.06.56.54c3.33,2.28,7.17,3.47,11,4.53,6.58,1.84,13.31,2.75,20.09.82a5.2,5.2,0,0,0,2.65-.56,58.54,58.54,0,0,0,14-8c8.41-6.42,13.8-14.91,16.79-25a95.38,95.38,0,0,1,14.5,7.52c5.68,3.82,10.26,8.84,15.42,13.22,3.45,4.34,7.2,8.41,9.68,13.52,3.52,7.26,6.3,14.83,9.6,22.18a26.27,26.27,0,0,1,2.45,7.79,19.12,19.12,0,0,1-3.42.5c-7.06,1.22-13.9,3.36-20.9,4.79-7.33,1.5-14.63,3.1-22,4.62-1.42.3-2.07.79-1.86,2.5,1.57,13.14,4.39,26.06,7,39,.71,3.54,1.12,6.84-.35,10.44C261.12,498,256,511.39,251.5,525A4.79,4.79,0,0,1,250.16,527.33Z"/><path class="cls-8" d="M286.32,379.42c-5.15-4.39-9.74-9.41-15.42-13.23a95.33,95.33,0,0,0-14.5-7.52,49.26,49.26,0,0,0-2.42-23c-1.38-3.82-3-7.65-6.18-10.48l-.34-.51c.75-9.9-1.82-19.08-6-27.91a10.45,10.45,0,0,0-7.39-6.06,65.16,65.16,0,0,0-30.11-.72,78.81,78.81,0,0,1,1.47-9.72c1.75-9.41,3.86-18.71,7.4-27.67,1.74-4.41,4.8-7.6,8.1-10.58a91,91,0,0,1,25-16.27,21.43,21.43,0,0,0,2.89,7.1c6.63,11.71,19.16,13.63,29,4.52a42.1,42.1,0,0,0,9.58-13.48c13.32,4.77,25.14,12.23,36.5,20.49a54.86,54.86,0,0,0-12,10.08A62.59,62.59,0,0,0,298,283.31c-2.51,12.7-2.09,25.3-.21,38,.28,1.91,1,2.32,2.83,1.67,2.34-.84,4.79-1.39,7.2-2,4.16-1.12,8.5-1.5,12.54-3.11,3.67,2.25,7.26,4.6,9,8.8-11.34,7-22.5,14.24-33.55,21.67a5.35,5.35,0,0,0-2.23,3.14C290.89,360.67,288.7,370.07,286.32,379.42Z"/><path class="cls-9" d="M343.71,435.61a13.25,13.25,0,0,1,3.84,8.45c1.67,14.61,2.12,29.12-1.41,43.64a194.09,194.09,0,0,1-8.72,25.88A47.17,47.17,0,0,0,335,539.31a453.05,453.05,0,0,0,10,44.76,341.23,341.23,0,0,1,8.18,35,26.53,26.53,0,0,1-.16,11.13c-1.49,5.75-5.92,7.61-11.07,8.58-4.21.79-7.13-1.32-9.75-4.25s-4.46-6.21-6.62-9.36A30,30,0,0,0,322,618c-6.31-9.38-10.5-19.78-14.82-30.13A170.4,170.4,0,0,1,295.85,549c-1.42-9-.73-18.07.28-27.09.41-3.63.86-7.25,1.29-10.87.19-.72.42-1.43.56-2.16a117,117,0,0,1,5.72-20.13c2.32-5.9,5.52-11.36,8.21-17.07.38-.54.78-1.06,1.15-1.61,5-7.44,10-14.92,16.05-21.58,4.25-4.68,9.41-8.4,13.84-12.89Z"/><path class="cls-8" d="M420.45,249.19c6.27-4.28,12.64-8.35,20.25-9.86l6.21,7.45c1.13,1.36,2.26,1.3,3.66.27a69.51,69.51,0,0,0,8.09-7.37,74,74,0,0,1,11.51,5.9c7.95,4.57,11.44,11.92,13.64,20.47,4.72,18.29,4.55,36.76,3,55.36A95,95,0,0,1,485.19,334a69.37,69.37,0,0,0-10.93-3.19c-2-.44-3.22.37-3.61,2.3s-.55,3.75-.81,5.63a133.92,133.92,0,0,1-17,.77c-3.35-.15-6.73-.75-10.1-.14-2.35-2.67-4.34-5.65-7-8.05-4.66-4.17-9.33-8.3-15.88-9.17C423,297.83,424.6,273.53,420.45,249.19Z"/><path class="cls-10" d="M311.91,471.68c-2.69,5.71-5.89,11.17-8.21,17.07A117,117,0,0,0,298,508.88c-.14.73-.37,1.44-.56,2.16l-14.9,23.21c-3.66,4.53-6.51,9.59-9.65,14.46q-2.16,3.35-4.14,6.8c-.7,1.23-1.39,1.17-2.35.35-6.37-5.43-12.77-10.84-19.14-16.28-1.36-1.16-.81-2.56-.28-3.89,1.1-2.77,2.62-5.38,3.2-8.36A4.79,4.79,0,0,0,251.5,525c4.52-13.58,9.62-27,15-40.2,1.47-3.59,1.06-6.89.35-10.44-2.58-13-5.4-25.88-7-39-.21-1.71.44-2.21,1.86-2.5,7.32-1.52,14.63-3.13,22-4.62,7-1.43,13.85-3.57,20.9-4.79a19,19,0,0,0,3.42-.5,1.36,1.36,0,0,1,.83,1.15c.91,6.4,2.27,12.74,2.54,19.23.2,4.89.35,9.79.6,14.68.2,4,1.12,7.92-.39,11.81A2.6,2.6,0,0,0,311.91,471.68Z"/><path class="cls-10" d="M96.54,420.27c4.59,1.13,9.18,2.24,13.77,3.38,9.53,2.37,19.23,3.9,28.85,5.86,1.82.37,2.46,1,2.39,2.9-.33,9.72-.68,19.43-2.32,29a7.4,7.4,0,0,0,.14,3c3.7,16.29,7.2,32.63,10.24,49.06.67,3.6,1.29,7.2,1.93,10.8.52,3.28.8,6.62,1.63,9.82.65,2.53-.34,4-2.17,5.23-3.79,2.56-7.56,5.17-11.47,7.53a87.83,87.83,0,0,1-10.78,5.74c-1.45.62-2.1.35-2.55-1.13-.8-2.63-1.72-5.22-2.59-7.82a4.57,4.57,0,0,0-1.49-2.53c-1-5.69-3.83-10.78-5.68-16.19-4.19-12.26-8.17-24.58-11.56-37.1a253.47,253.47,0,0,1-5.65-27.3c-2-12.91-2.35-26-2.62-39C96.59,421.1,96.56,420.68,96.54,420.27Z"/><path class="cls-2" d="M420.45,249.19c4.15,24.35,2.59,48.64-.65,72.93-2.64-.28-5.29-.65-7.85.47-.85.37-1.4-.25-2.05-.57-6.33-3-12.82-4.25-19.75-2.12a50.3,50.3,0,0,0-14.24,7,5.51,5.51,0,0,0-1.44-.89c-4.54-1.1-9.1-2.14-13.66-3.2.24-1.38,1.26-2.27,2.06-3.29,2.26-2.87,5.54-4.66,7.9-7.43,7.6-1.39,15.2-2.75,22.79-4.19,3.62-.69,4-1.44,3.57-5.23a119.14,119.14,0,0,0-8.59-32.15c-4.08-9.6-8.76-18.68-17.7-25.07-7.45-5.32-15.16-8.91-24.45-8-5.31.49-10.33,2.4-15.49,3.62a25.53,25.53,0,0,1,12.76-15.8c3.21-1.71,6.26-3.73,9.38-5.62a21.09,21.09,0,0,0,6-5.49,10.35,10.35,0,0,1,5.68-4.24,44.86,44.86,0,0,1,.25,4.48c-.07,1.87.67,2.65,2.55,2.83,5.47.53,10.92,1.19,16.38,1.84,1.9.23,3.11-.52,3.46-2.37.46-2.44.78-4.9,1.15-7.36,3.06,1.55,5.15,4.14,7.1,6.83a18.41,18.41,0,0,0,4.44,4.29c5.17,3.61,10.17,7.43,14,12.52a30,30,0,0,1,5.72,13.6C420,247.42,420.24,248.3,420.45,249.19Z"/><path class="cls-11" d="M161.23,351.75c-3.92,2.18-8.22,3.45-12.32,5.19a97.79,97.79,0,0,0-29.61,19.76,5.72,5.72,0,0,1-.81.55c1.69-6,.56-11.54-2.48-16.93-2.85-5.05-2-10.74-1.76-16.17.33-7.57.16-15.14.28-22.7.16-10.14-.11-20.29.48-30.43a27.16,27.16,0,0,1,.93-5.9c1.1-3.86,3.12-6.72,7.12-8.33,7.32-2.94,14.5-6.27,21.7-9.5,2.38-1.07,4.15-3,6.15-4.64.77-.62,1.44-1.41,2.58-1.31.6,3,.52,6.08,1.94,8.87-.67,1-.44,2.09-.43,3.15.08,11.8,1.43,23.5,2.35,35.24C158.47,323,159.94,337.37,161.23,351.75Z"/><path class="cls-12" d="M330.9,241c5.16-1.22,10.18-3.13,15.49-3.62,9.29-.86,17,2.73,24.45,8,8.94,6.39,13.62,15.47,17.7,25.07a119.14,119.14,0,0,1,8.59,32.15c.47,3.79.06,4.54-3.57,5.23-7.59,1.45-15.19,2.8-22.79,4.19.57-2.69,2.14-5,2.63-7.76a82.72,82.72,0,0,0,.81-20.13c-.41-6-.87-12.1-3.07-17.86-.58-1.53-1.24-2.08-2.68-1.17-6.61,4.22-14.22,5.64-21.66,7.1-10.32,2-20.75,3.83-31.36,3.52-1.62,0-2.37.4-2.36,2.26a76.8,76.8,0,0,0,.54,8.66c1.28,10.58,3.9,20.87,6.77,31.11-4,1.62-8.38,2-12.54,3.11-2.41.65-4.86,1.19-7.2,2-1.83.65-2.55.24-2.83-1.67-1.88-12.67-2.29-25.28.21-38a62.59,62.59,0,0,1,13.88-28.85,54.86,54.86,0,0,1,12-10.08Z"/><path class="cls-5" d="M251.11,214.24c-3.18,4.11-7.48,5.06-12.27,4-4.2-.92-6.66-3.87-7.94-7.85a5.47,5.47,0,0,1-.3-2.2c.15-1.36.57-2.2,2.26-1.23,3.51,2,5.49.77,5.58-3.3.07-2.89-.92-5.56-1.67-8.28-1.71-6.13-2.83-12.32-1.87-18.71,1-6.59,3.3-12.51,8.5-17a9.79,9.79,0,0,1,6.54-2.7,16.33,16.33,0,0,0,6.21-1.41c12.29-4.63,23.94-3.37,34.77,4.13,5.18,3.59,7,9.09,7.94,15a58.61,58.61,0,0,1-2,25.85c-.28,1-1.27,2.08-.38,3s1.82-.17,2.71-.51c1.56-.61,2.48,0,2.54,1.61.18,4.95-4,12.24-10.62,11.86-3.31-.19-6.44-.76-8.85-3.31-.15-2.21,2-3.11,2.71-4.89a40.91,40.91,0,0,0,1.66-22.59c-.33-1.66-1.23-1.95-2.68-1.61a50.68,50.68,0,0,1-29.88-1.83c-1.71-.64-2.55-.09-3.53,1.17-5.11,6.53-5.93,13.82-4.31,21.73C247,208.74,249.34,211.28,251.11,214.24Z"/><path class="cls-11" d="M442.7,339.33c3.37-.61,6.75,0,10.1.14a134.09,134.09,0,0,0,17-.77c-.06,3.31-.17,6.63-.15,9.94,0,4.12,2.59,6.21,6.6,5.47-.9,9.59-1.77,19.18-2.71,28.76-.84,8.51-1.54,17-2.85,25.5-.35,2.3-.85,4.57-1.28,6.86q-3.94,8.7-7.87,17.4c-.88,2-1.7,4-2.55,5.93-3.34-1.89-7.2-2.2-10.74-3.48a7.49,7.49,0,0,1-2.65-1.24l.09-.12c.72-2.72,1.52-5.43,2.15-8.17,2.33-10.15,3.75-20.46,5.34-30.74a86,86,0,0,0-.82-31.13A70.75,70.75,0,0,0,442.7,339.33Z"/><path class="cls-13" d="M251.11,214.24c-1.77-3-4.14-5.5-4.88-9.12-1.62-7.91-.8-15.19,4.31-21.73,1-1.26,1.82-1.81,3.53-1.17A50.68,50.68,0,0,0,284,184.06c1.45-.34,2.35,0,2.68,1.61A40.91,40.91,0,0,1,285,208.26c-.66,1.79-2.86,2.68-2.71,4.89-2,4.73-1.13,7.16,3.42,9.39.66.33,1.41.56,1.71,1.35a42.1,42.1,0,0,1-9.58,13.48c-9.86,9.11-22.38,7.19-29-4.52a21.43,21.43,0,0,1-2.89-7.1c.53-1.32,1.84-1.55,2.92-2.11A6.24,6.24,0,0,0,251.11,214.24Zm16.39-2.51c4.75.67,7.42-2.1,9.44-5.84.42-.77,1-1.76-.08-2.41a2.27,2.27,0,0,0-3.15.41,8.15,8.15,0,0,0-.69,1c-1.22,2-3,2.82-5.39,3s-4.08-1.21-6.08-1.93c-.69-.25-1.53-1.16-2.18-.06-.49.83,0,1.63.61,2.25C262,210.33,264.15,212.32,267.5,211.74Zm-1.43-9.24c4.34.08,5.58-1.49,4.48-5.14a41.49,41.49,0,0,0-2.06-4.78c-.23-.52-.42-1.19-1.17-1s-.83.75-1,1.29c-.6,1.47.32,2.73.56,4.08.2,1.14.3,2.55-1.5,1.55s-2.12.26-2.64,1.21c-.72,1.31.25,2.07,1.28,2.48A7.7,7.7,0,0,0,266.07,202.49ZM279,192.33c-.36-1.22-.64-2.93-2.55-2.83s-2.42,1.76-2.47,3.41.89,2.95,2.64,2.87S278.85,194.16,279,192.33Zm-19,.53c0-1.65.06-3-1.95-3s-2.68.86-2.63,2.73c.05,1.69.33,3.48,2.29,3.5S259.84,194.19,259.94,192.87Z"/><path class="cls-14" d="M212.59,732a76,76,0,0,0,6.49,11.71,34.28,34.28,0,0,0,13.71,11.24c4.2,2,8.49,3.79,12.74,5.66a61.31,61.31,0,0,0,22,5c1,0,2,.21,3,.31-3.64,1.89-7.7,1.94-11.6,2.44-11.83,1.52-23.69,2.88-35.56,4-9.65.93-19.28,2-28.91,3,3.21-3.66,3.37-9.64.59-14.32-4.12-6.94-10.55-11.64-16.24-17.06-.56-.54-1.79-.84-1.44-1.75s1.48-.33,2.26-.45c2.13-.34,4.26-.72,6.4-.93,1.47-.14,2-.76,1.93-2.23-.15-3.23-.19-6.46-.28-9.7Z"/><path class="cls-10" d="M155.42,270.23c-1.43-2.79-1.34-5.9-1.94-8.87a9.66,9.66,0,0,0-3.25-8.52A23.19,23.19,0,0,1,143,235a68,68,0,0,1,.74-9.15c2-3.75,4.26-7.33,7.78-9.88,9.35-6.78,24.57-5.7,31.39,7.65.73,1.43,1,3.16,2.46,4.17.46,9.13-1.91,17.32-8.17,24.15a6.47,6.47,0,0,0-1.72,4.49c0,1.73,0,3.47,0,5.2-.88,2.86-.53,6.05-2.37,8.65C168.24,276.74,159.83,276.73,155.42,270.23ZM167,238.4c-4.12.32-8.24.68-12.36.94-1.85.12-1.73,1.05-1.21,2.34,1.5,3.77,4.57,5,8.29,5.13s6.2-1.38,7.67-4.71C170.68,239.2,170.1,238.3,167,238.4Zm-9.24-7.34a2.81,2.81,0,0,0,2.41,3,3.56,3.56,0,0,0,3.93-2.4c.39-1-.42-1.7-1.61-1.34-.52.16-1.06.83-1.56.31s.14-1.21.33-1.8.46-1.07.61-1.62.23-1.21-.36-1.57-1.11.1-1.47.55A8.39,8.39,0,0,0,157.78,231.06ZM168.08,224c0,2.05,1.22,3.48,2.77,3.39,1.84-.11,2.61-1.25,2.65-3s-1.36-3.5-2.93-3.38C168.66,221.15,168.31,222.65,168.08,224Zm-12.5.32c-.3-1.26-.69-2.73-2.35-2.56a2.84,2.84,0,0,0-2.66,3.07,2.53,2.53,0,0,0,2.58,2.78C155.15,227.58,155.27,225.86,155.58,224.29Z"/><path class="cls-9" d="M388.55,209.29c-.38,2.45-.69,4.92-1.15,7.36-.35,1.85-1.56,2.6-3.46,2.37-5.46-.65-10.91-1.31-16.38-1.84-1.87-.18-2.62-1-2.55-2.83a44.86,44.86,0,0,0-.25-4.48c.26-3.69-.34-6.94-3.41-9.6-3.54-3.07-4.83-7.41-5.55-11.92-.14-.9-.31-1.79-.46-2.69a54.78,54.78,0,0,1,.57-8.68c.24-1.36.59-2.05,2.26-2.23a33.71,33.71,0,0,0,18-7.52c1.79-1.46,2.61-1.63,4.28.31,3.43,4,7.64,6.88,13.36,6,1.09-.17,1.21.54,1.55,1.19,1.36,2.61,1.58,5.54,2.4,8.3-.75,4.64-1.19,9.47-4.47,13.15S388.75,204.42,388.55,209.29ZM376.69,198a7,7,0,0,0,7.61-5.31c.38-1.5.13-2.5-1.71-2.32a95.63,95.63,0,0,0-12.24,2c-1.65.39-2,1.4-.8,2.7A9.26,9.26,0,0,0,376.69,198Zm3.74-13c0-2.79-3-5-5.3-4.22a1.68,1.68,0,0,0-1.22,1.68,1.16,1.16,0,0,0,1.11,1.36c.67.1,1.68-.35,1.84.73.13.88-.73,1.23-1.39,1.56-1,.48-1,1.22-.69,2.09.4,1.1,1.31.93,2.09.7A4.69,4.69,0,0,0,380.43,185Zm-11-6.93c-.06-1.58-.6-2.69-2.47-2.66-2.13,0-2.29,1.6-2.38,3.1s.52,2.61,2,2.59A2.58,2.58,0,0,0,369.42,178.07Zm12.14-.57c.22,1.2.77,2.51,2.41,2.39a2.41,2.41,0,0,0,2.38-2.88c-.1-1.33-.35-2.61-2-2.56S381.59,175.48,381.55,177.51Z"/><path class="cls-10" d="M458.66,239.67a69.51,69.51,0,0,1-8.09,7.37c-1.39,1-2.52,1.1-3.66-.27l-6.21-7.45c-.06-3.26-.37-6.15-3.44-8.49-3.41-2.59-4.72-6.71-5.51-10.88a50.26,50.26,0,0,1,1.11-11.88c.41-1.74,1.27-2.86,3.36-2.24,3.31,1,6.79.78,10.15.76s7.06.37,10.32-1.19c2-1,2.69-.13,3,1.69.47,2.45.89,4.91,1.53,7.31.88,3.33,2.36,3.72,4.84,1.43.18-.17.39-.31.58-.46-.15,4.67-1.23,9.15-4.37,12.66A14.45,14.45,0,0,0,458.66,239.67Zm-9-11.32c4.76,0,7.6-2.59,7.2-6.53-.16-1.56-.8-2.17-2.27-1.28a14.13,14.13,0,0,1-10.32,1.58c-.7-.13-1.35-.2-1.73.52a1.64,1.64,0,0,0,.27,1.86C444.52,226.74,446.53,228.53,449.63,228.34Zm-5.41-15.12c0-1.57-.68-2.67-2.28-2.72s-2.64.59-2.66,2.3.72,2.91,2.58,3S443.85,214.46,444.23,213.22Zm10.09-2.83c-1.52,0-2,1-2,2.29a2.23,2.23,0,0,0,2.17,2.53,2,2,0,0,0,2.18-2.2A2.3,2.3,0,0,0,454.32,210.39Z"/><path class="cls-12" d="M397.74,183c-.82-2.76-1-5.69-2.4-8.3-.34-.64-.46-1.36-1.55-1.19-5.72.89-9.93-2-13.36-6-1.67-1.94-2.49-1.78-4.28-.31a33.71,33.71,0,0,1-18,7.52c-1.67.18-2,.87-2.26,2.23a54.78,54.78,0,0,0-.57,8.68c-4-2.2-4.2-6.26-4.45-10-.72-10.56,6.11-19.94,16.75-23.16,7.55-2.29,15-2.75,21.78,2.47,7.27,5.62,11.48,12.79,10.92,22.25A8.64,8.64,0,0,1,397.74,183Z"/><path class="cls-11" d="M173.1,270.24c1.84-2.6,1.49-5.79,2.37-8.65,4.7,7.77,12.82,10.72,20.39,14.4,3.14,1.53,6.37,2.86,9.56,4.29a78.8,78.8,0,0,0-1.47,9.72,64,64,0,0,0-12.34,4.48c-6.8,3.54-10,9.17-10.7,16.74s.83,5.94-6.49,5.92c.05-.58.15-1.15.15-1.73.13-14.6-.88-29.17-1.06-43.77A5.45,5.45,0,0,0,173.1,270.24Z"/><path class="cls-12" d="M466.67,215.37c-.2.15-.4.3-.58.46-2.47,2.29-4,1.9-4.84-1.43-.63-2.4-1.06-4.86-1.53-7.31-.35-1.82-1-2.66-3-1.69-3.26,1.56-6.89,1.17-10.32,1.19s-6.84.23-10.15-.76c-2.09-.62-2.95.5-3.36,2.24A50.26,50.26,0,0,0,431.75,220c-1.06-.08-1.56-.8-2-1.64-3.24-6.08-3.81-17.72,1.61-23.55,3.53-3.8,8-5.27,12.84-5.78a25,25,0,0,1,13.51,2.66c6.92,3.3,8.84,9.5,9.54,16.33A17.36,17.36,0,0,1,466.67,215.37Z"/><path class="cls-12" d="M185.32,227.74c-1.46-1-1.73-2.75-2.46-4.17-6.82-13.35-22-14.43-31.39-7.65-3.52,2.55-5.76,6.14-7.78,9.88-.48-3.77.52-7.44.91-11.14a85.08,85.08,0,0,1,2.3-14.26c.51-1.84,1.44-2.69,3.33-2.59,10.13.52,20.26.93,30.3,2.47,1.54.24,2.46.82,2.64,2.42C184.13,211,186.11,219.26,185.32,227.74Z"/><path class="cls-10" d="M476.28,354.11c-4,.74-6.58-1.34-6.6-5.47,0-3.31.1-6.63.15-9.94.26-1.88.45-3.77.82-5.63s1.57-2.74,3.61-2.3A69.37,69.37,0,0,1,485.19,334c.89,4.62-1.45,8.51-2.86,12.6-.45,1.32-1.23,2.52-1.79,3.81A5.78,5.78,0,0,1,476.28,354.11Z"/><path class="cls-13" d="M676.61,334.59c-1.62,16.38-3.55,32.74-4.74,49.15-.74,10.27-1,20.62-.69,30.94a16.69,16.69,0,0,1-.2,5c-9.31.34-18.62.83-27.93,1-15.73.24-31.43,1.46-47.16,1.31-.94-.39-1-1.26-1.12-2.08-3-21.53-7.8-42.72-11.79-64.07-1.12-6-2.51-11.88-3.76-17.81,8.09-2.79,10.84-7.31,10.15-16a35.17,35.17,0,0,0-8.9-21.46c-15.08-16.73-22.21-37-26.31-58.66-2-10.54-1.46-21.22-2-31.84-.07-1.34.62-1.91,1.82-2.25a16.68,16.68,0,0,1,5.21-.37c11.37.35,22.66-.21,33.62-3.52,11.69-3.53,22.76-8.46,32.52-15.94,1.34-1,2.14-.73,3.19.14a132,132,0,0,0,15.73,11.4c6.12,3.7,12.44,6.75,19.49,8,3.18.55,4.79,1.82,5.37,5.26,4.59,26.85,3.08,53.17-6.05,79-2.19,6.18-4.71,12.26-5.6,18.86-1.28,9.49,1.77,15.67,10.34,20C670.63,332.08,673.65,333.27,676.61,334.59Zm-65.27-49.4c14.88-.35,22.37-9.14,24.27-21.55.22-1.45.42-3.17-1.71-3.54s-3.51.06-4,2.5c-1.21,5.85-4.91,9.89-9.93,12.79-4,2.33-8.14,3-12.48.47-2.35-1.39-4-3.49-6-5.21-.84-.72-1.73-1.15-2.68-.44a1.94,1.94,0,0,0-.45,2.5,22.76,22.76,0,0,0,1.68,3.61C603.18,281.1,607.07,284.85,611.34,285.18Zm-23.1-58.82c-4.11,0-6.47,2.47-6.47,6.75,0,4.49,3,8.12,6.65,8.18S595,238,595,233.44A7,7,0,0,0,588.24,226.36Zm21.46,29.82c3.55.08,4-.19,4.06-2.46.09-2.81-.29-3.13-3.9-3.24-.42,0-.83,0-1.25,0-2.24,0-3.33-1.4-3.77-3.3-.39-1.69,1.28-3.58,3.27-4a30.65,30.65,0,0,0,3.4-.74c1.54-.54,1.71-1.63.42-2.56a8.57,8.57,0,0,0-8.57-.65,6.5,6.5,0,0,0-4.12,6C599,251.72,603.11,256,609.7,256.18Zm23.69-26.67c-.16-3.17-1-5.74-3.15-7.71a5.29,5.29,0,0,0-8.67,2.32,11.39,11.39,0,0,0-.26,5.68,6.83,6.83,0,0,0,7.24,5.51A6.15,6.15,0,0,0,633.38,229.51Z"/><path class="cls-8" d="M595.89,421.93c15.74.15,31.44-1.07,47.16-1.31,9.31-.14,18.62-.63,27.93-1,1,21.87,2.42,43.71,3.92,65.54q1.34,19.43,2.66,38.86c-5.12-.46-10.25-.83-15.35-1.42-2-.23-2.71.19-2.88,2.3-1,12.56-2.15,25.12-3.26,37.67-8.83-.7-16.55,2.51-24.11,6.59-5.2,2.81-10.63,5.2-16.83,4.37-3.1-22.15-6.25-44.29-9.29-66.45-2.8-20.42-5.42-40.87-7.65-61.37C597.34,437.83,596.65,429.88,595.89,421.93Z"/><path class="cls-13" d="M615.14,573.58c6.2.83,11.63-1.56,16.83-4.37,7.56-4.09,15.28-7.29,24.11-6.59.14,3.15.39,6.3.39,9.46s1.58,4.37,4.29,5.25a103.93,103.93,0,0,0,32.35,5.35c7.6,0,14.64,2,20.57,7a11.9,11.9,0,0,1,3.85,5.12c2.47,7.22,3,14.5,0,21.67-2.93,7-7.13,12.89-14.66,15.74-10.56,4-21.57,5.46-32.74,5.91-6.89.27-13.81,0-20.72,0-7.59-.51-15.08-1.76-22.59-2.95-.89-.14-1.81-.17-2.71-.25-11.22-2.38-22.51-4.48-33.64-7.28-7.51-1.89-14.78-4.55-22.16-6.85-2.11-.66-2.32-1.75-1.92-3.73,2.25-11.36,5.65-22.42,8.66-33.58,1-3.85,2.14-7.69,3.1-11.57.48-1.92,1.32-2.36,3.36-2,10.39,1.83,20.78,3.84,31.4,3.79C613.65,573.68,614.4,573.62,615.14,573.58Z"/><path class="cls-5" d="M649.4,638.1c6.91,0,13.82.31,20.72,0,11.16-.44,22.17-1.92,32.74-5.91,7.53-2.85,11.73-8.73,14.66-15.74,3-7.18,2.51-14.45,0-21.67a11.9,11.9,0,0,0-3.85-5.12c-5.93-5-13-7-20.57-7a103.93,103.93,0,0,1-32.35-5.35c-2.71-.87-4.29-2.23-4.29-5.25s-.25-6.3-.39-9.46c1.1-12.56,2.25-25.11,3.26-37.67.17-2.11.91-2.53,2.88-2.3,5.1.59,10.23,1,15.35,1.42a55.79,55.79,0,0,0,8.15.67c7.92.8,15.85,1.64,23.77,2.4q22.82,2.19,45.65,4.29c8.76.81,17.54,1.53,26.31,2.29,4.87.5,9.75,1,14.62,1.5,3.9.38,3.84.34,3.29,4.05q-5.7,38-11.36,76-4.38,29.37-8.72,58.74c-1.36,8.87-2.79,17.73-4,26.61-.26,1.82-.94,2.08-2.54,1.89q-19.68-2.42-39.37-4.74L685,692c-12.79-1.52-25.59-3.06-38.39-4.51-1.64-.19-1.56-1.06-1.45-2.21q1.58-17.64,3.13-35.29Q648.86,644.06,649.4,638.1Z"/><path class="cls-9" d="M445.74,433.72l-.09.12a83.88,83.88,0,0,1-8.81,20.56c-4.33,7.14-10.07,12.79-17.58,16.1-8.69,3.84-17.57,3-26.39-.62-12.79-5.3-20.2-15.31-25.09-27.61a78.25,78.25,0,0,1-4-13.89c4.8-.41,9.6-.83,14.4-1.21a5.45,5.45,0,0,0,5.29-4.39A9.56,9.56,0,0,0,382,415a43.49,43.49,0,0,0-4-5.06c-2.74-3.25-5.26-6.63-6.67-10.74-2.3-6.71-2.11-13.57-1.42-20.48a2.25,2.25,0,0,1,1.35-1.91c9.09-4.85,16.88-11.37,24.21-18.52,4.87-4.75,10.37-8.87,14.48-14.39.34-.46.56-1.19,1.41-1.23a82.16,82.16,0,0,0,4.71,9.63c5.85,9.68,13.76,17.71,21,26.26,6.21,7.33,6.08,4.45,3.88,14.83-1.9,8.94-6,16.41-13.41,22a17.16,17.16,0,0,0-3.34,3.34c-2.83,3.77-1.71,8.54,2.61,10.21,5.81,2.25,12,3.42,18,4.88A3.39,3.39,0,0,0,445.74,433.72Zm-39.88-27.33c6.4.05,11.26-3.62,12.14-9.18.15-.92.43-2-1-1.94-7.27.16-14.33-1.31-21.4-2.76-1.14-.24-1.71.4-2,1.4a7.12,7.12,0,0,0,.09,3.68C395.1,402.89,399.86,406.34,405.85,406.39Zm9.32-23.46c0-4.59-3.11-6.54-7.18-4.47-.76.39-1.88.6-1.68,1.83s1.38.81,2.2,1,1.8-.5,2.11.68a2.24,2.24,0,0,1-1,2.38,7.3,7.3,0,0,0-2.5,2.36c-.74,1.51-.45,2.34,1.39,2.39C411.65,389.15,415.17,385.93,415.17,382.93Zm-23.08-4.39c2,.06,4-2.11,4-4.28,0-2.49-1.21-3.92-3.44-4a3.82,3.82,0,0,0-4.21,3.87C388.46,376.34,390.24,378.49,392.1,378.54Zm27.75-3.29a3.91,3.91,0,0,0,3.91,4.23c1.87.09,3.15-1.36,3.19-3.62.05-2.68-1.57-4.77-3.69-4.76C421.34,371.13,419.91,372.86,419.85,375.25Z"/><path class="cls-12" d="M445.74,433.72a3.39,3.39,0,0,1-1,.06c-6-1.45-12.19-2.63-18-4.88-4.33-1.67-5.44-6.44-2.61-10.21a17.16,17.16,0,0,1,3.34-3.34c7.37-5.58,11.52-13.06,13.41-22,2.2-10.38,2.33-7.5-3.88-14.83-7.24-8.55-15.16-16.59-21-26.26a82.16,82.16,0,0,1-4.71-9.63c-.85,0-1.07.77-1.41,1.23-4.11,5.52-9.61,9.63-14.48,14.39-7.33,7.16-15.12,13.68-24.21,18.52a2.25,2.25,0,0,0-1.35,1.91c-.69,6.91-.87,13.77,1.42,20.48,1.41,4.1,3.93,7.49,6.67,10.74a43.49,43.49,0,0,1,4,5.06,9.56,9.56,0,0,1,1.49,7.84,5.45,5.45,0,0,1-5.29,4.39c-4.8.38-9.6.8-14.4,1.21l-10.61,1.82a174.78,174.78,0,0,1-4.44-35.81c-.2-17.15,2.83-33.56,10.71-48.92,2-2.32,3.3-5.1,5.27-7.46,3.41-4.08,7.48-7.44,11.22-11.15a50.3,50.3,0,0,1,14.24-7c6.92-2.14,13.42-.93,19.75,2.12.66.32,1.21.93,2.05.57,2.56-1.11,5.21-.75,7.85-.47,6.56.87,11.23,5,15.88,9.17,2.67,2.4,4.66,5.38,7,8.05a70.75,70.75,0,0,1,9.7,24.34,86,86,0,0,1,.82,31.13c-1.59,10.28-3,20.59-5.34,30.74C447.25,428.29,446.46,431,445.74,433.72Z"/><path class="cls-8" d="M359.41,345.48c-7.88,15.36-10.91,31.77-10.71,48.92a174.78,174.78,0,0,0,4.44,35.81c-2.75,1.34-5.49,2.69-8.24,4-.62.3-1.23.54-1.19,1.38H343c-.09-.66-.11-1.33-.26-2-3.3-14.25-5-28.77-7.33-43.18a299.33,299.33,0,0,1-3.82-47.85c2.67,5.36,5.54,10.6,10.15,14.59,2.26,2,4.15,1.79,6.38-.27a25.57,25.57,0,0,0,4.26-5.48A42.26,42.26,0,0,0,358.77,334C359.38,337.81,359.18,341.66,359.41,345.48Z"/><path class="cls-8" d="M781.45,533.72c-8.77-.76-17.54-1.49-26.31-2.29q-22.83-2.1-45.65-4.29c-7.93-.76-15.85-1.6-23.77-2.4,0-1.91-.15-3.83-.07-5.73.25-5.37,3-7.88,8.37-7.53,3,.19,6,.57,8.93.9a38.68,38.68,0,0,0,19.22-3c8.54-3.49,17.22-3.62,24.9,2.09a39.69,39.69,0,0,0,22.79,8.19,33,33,0,0,1,8.06,1.54c3.48,1,4.64,2.69,4.65,6.39A28.51,28.51,0,0,1,781.45,533.72Z"/><path class="cls-1" d="M331.54,342.61a299.33,299.33,0,0,0,3.82,47.85c2.35,14.41,4,28.93,7.33,43.18.15.64.18,1.32.26,2-4.43,4.49-9.59,8.21-13.84,12.89-6.05,6.66-11,14.14-16.05,21.58-.37.55-.77,1.07-1.15,1.61a2.6,2.6,0,0,1-.29-1.92c1.51-3.89.6-7.86.39-11.81-.25-4.89-.39-9.78-.6-14.68-.27-6.48-1.63-12.83-2.54-19.23a1.36,1.36,0,0,0-.83-1.15,26.31,26.31,0,0,0-2.45-7.79c-3.3-7.35-6.07-14.92-9.6-22.18-2.48-5.11-6.23-9.18-9.68-13.52,2.38-9.35,4.56-18.75,7.34-28a5.35,5.35,0,0,1,2.23-3.14c11.05-7.42,22.22-14.68,33.55-21.67a5.3,5.3,0,0,1,.9,3.26A110,110,0,0,0,331.54,342.61Z"/><path class="cls-10" d="M247.81,325.2c3.17,2.84,4.8,6.66,6.18,10.48a49.26,49.26,0,0,1,2.42,23c-3,10.08-8.39,18.58-16.79,25a58.54,58.54,0,0,1-14,8,5.2,5.2,0,0,1-2.65.56c2.21-1.85,4.69-3.36,5.91-6.24,2.38-5.62,1.61-11.44,1.41-17.22a2.53,2.53,0,0,0-1.66-2.33c-1.2-.41-1.83.65-2.42,1.38-2,2.49-2.93,5.57-4.3,8.4-1.29,2.68-3.11,4.59-6.23,5.18a48.61,48.61,0,0,1-6,.48c-9.13.61-12.55-2.62-14.8-10.3a36.87,36.87,0,0,0-1.2-4.06c-.59-1.4-1.49-2.74-3.26-2.66-1.61.07-2.16,1.49-2.59,2.72a17.35,17.35,0,0,0,.39,12.65c.74,1.84,1.49,3.68,2.24,5.52-5.45-2.07-9.21-6.13-12.37-10.78-4.89-7.19-6.58-15.36-6.91-23.9,0-.66-.11-1.32-.16-2,.71-5.19,1.38-10.38,3.53-15.24,1.2-1.52,1.77-3.37,2.67-5L184,329c.7,1.22,2.05,1.32,3.17,1.77,10.75,4.31,22,5.59,33.45,5C230.72,335.18,240.14,332.35,247.81,325.2Zm-22.45,36.41c2.46.21,3.49-.72,2.54-2.32a19.51,19.51,0,0,0-6.45-7.13,3.3,3.3,0,0,0-4.5.42,37.65,37.65,0,0,1-3.79,3.22c-1.5,1.12-3.29,1.55-4.87.4s-.56-2.67-.08-4.07c.72-2.1-.14-3.12-2.28-2.67A17.82,17.82,0,0,0,195.08,356c-.71.92-2.23,1.87-1.66,3.08s2.34,1,3.62,1.08C206.49,360.47,215.94,360.89,225.37,361.61Zm-13.83,11.7c4.13,0,8.2-2,10-4.49,1.56-2.14,1.06-4.33-1.09-4.55-6.67-.67-13.41-.47-20.07-1.37-1.48-.2-2.28.53-1.41,2.12C201.86,370.23,206.22,373.06,211.53,373.31ZM230,345.42a9.13,9.13,0,0,0,0,1.24c.21,1.49.74,2.83,2.42,3.06s2.4-1.14,2.82-2.55a7.3,7.3,0,0,0,.25-1.47c.22-2.79-.87-4.68-2.79-4.83C231,340.75,230,342.44,230,345.42ZM195.45,344c0-2.23-1.52-4.43-3.08-4.13-2.41.46-2.51,2.67-2.75,4.49-.27,2,1.48,4.38,2.92,4.32S195.44,346.45,195.45,344Z"/><path class="cls-8" d="M174.57,333.87c-2.15,4.85-2.82,10-3.53,15.24-3.27.9-6.38,2.37-9.81,2.64-1.28-14.38-2.75-28.74-3.89-43.13-.93-11.74-2.27-23.45-2.35-35.24,0-1.06-.24-2.17.43-3.15,4.41,6.5,12.82,6.51,17.67,0a5.41,5.41,0,0,1,.41,1.4c.18,14.59,1.19,29.17,1.06,43.77,0,.58-.1,1.16-.15,1.73a24.43,24.43,0,0,0-6.84,1c-1.78.65-3.42,1.5-3.53,3.67s1.21,3.34,2.87,4.28a24,24,0,0,0,7.56,2.24Z"/><path class="cls-12" d="M190.49,385.77c-.75-1.84-1.5-3.68-2.24-5.52a17.35,17.35,0,0,1-.39-12.65c.43-1.22,1-2.65,2.59-2.72,1.77-.08,2.67,1.26,3.26,2.66a36.87,36.87,0,0,1,1.2,4.06c2.25,7.68,5.66,10.91,14.8,10.3a48.61,48.61,0,0,0,6-.48c3.12-.59,4.94-2.51,6.23-5.18,1.37-2.84,2.28-5.92,4.3-8.4.59-.73,1.22-1.78,2.42-1.38a2.53,2.53,0,0,1,1.66,2.33c.21,5.79,1,11.61-1.41,17.22-1.22,2.88-3.7,4.39-5.91,6.24-6.78,1.93-13.51,1-20.09-.82-3.79-1.06-7.63-2.25-11-4.53l-.56-.54.05.06a.84.84,0,0,0-.92-.67Z"/><path class="cls-10" d="M190.47,385.76a.84.84,0,0,1,.92.67A1,1,0,0,1,190.47,385.76Z"/><path class="cls-10" d="M191.34,386.37l.56.54Z"/><path class="cls-10" d="M331.54,342.61a110,110,0,0,1-1.19-12.73,5.3,5.3,0,0,0-.9-3.26c-1.78-4.2-5.37-6.55-9-8.8-2.87-10.24-5.49-20.53-6.77-31.11a76.8,76.8,0,0,1-.54-8.66c0-1.86.73-2.31,2.36-2.26,10.62.31,21-1.49,31.36-3.52,7.44-1.46,15-2.89,21.66-7.1,1.44-.92,2.09-.36,2.68,1.17,2.2,5.76,2.66,11.84,3.07,17.86a82.72,82.72,0,0,1-.81,20.13c-.49,2.75-2.06,5.07-2.63,7.76-2.36,2.76-5.64,4.56-7.9,7.43-.81,1-1.82,1.91-2.06,3.29-2.39,3.43-1.66,7.42-2,11.21a42.26,42.26,0,0,1-6.44,17.44,25.57,25.57,0,0,1-4.26,5.48c-2.23,2.06-4.12,2.23-6.38.27C337.08,353.21,334.21,348,331.54,342.61ZM344,307.29c5-.49,9.61-2.25,12.8-6.55.89-1.2,2.88-2.77,1.22-4.27-1.83-1.66-3,.6-4.22,1.71a16.79,16.79,0,0,1-12.49,4.65,11.14,11.14,0,0,1-4.24-1.37c-1-.48-2.3-1.23-3.16,0-1.05,1.49.51,2.24,1.37,3C337.74,306.6,340.8,307,344,307.29Zm-.39-12.52c3.43,0,6.72-2.78,6.15-5.24a14.31,14.31,0,0,0-4.31-7.7c-.55-.49-1.22-1-2-.56s-.66,1.31-.54,2c.28,1.67,1.29,3,1.94,4.57,1,2.26.36,3.14-2.1,2.84-1.18-.15-2.33-.19-2.67,1.07s.75,1.94,1.73,2.43A8.93,8.93,0,0,0,343.64,294.77Zm12.93-18.41a4.16,4.16,0,0,0-4.06,4.16,3.61,3.61,0,0,0,3.75,3.26,4.07,4.07,0,0,0,3.86-3.81A4.27,4.27,0,0,0,356.57,276.36Zm-31.25,7.95c0,2.17,1.16,3.5,3,3.45a4,4,0,0,0,4.08-4.13c0-2.18-1.35-3.37-3.74-3.33C326.47,280.33,325.34,281.69,325.33,284.31Z"/><path class="cls-2" d="M174.48,328.32a24,24,0,0,1-7.56-2.24c-1.66-.94-3-2.2-2.87-4.28s1.75-3,3.53-3.67a24.43,24.43,0,0,1,6.84-1c7.32,0,5.84,1.58,6.49-5.92s3.9-13.2,10.7-16.74A64,64,0,0,1,203.95,290a65.16,65.16,0,0,1,30.11.72,10.45,10.45,0,0,1,7.39,6.06c4.21,8.83,6.78,18,6,27.91-4.73-.46-9.44,0-14.16.39-16.46,1.22-32.8,4-49.36,3.89l-6.71-.15A5.53,5.53,0,0,0,174.48,328.32Z"/><path class="cls-12" d="M184,329c16.56.11,32.9-2.68,49.36-3.89,4.71-.35,9.42-.85,14.16-.39l.34.51c-7.67,7.14-17.09,10-27.23,10.52-11.45.61-22.7-.67-33.45-5C186,330.29,184.66,330.19,184,329Z"/><path class="cls-1" d="M358.77,334c.38-3.79-.34-7.78,2-11.21,4.55,1.06,9.11,2.1,13.66,3.2a5.51,5.51,0,0,1,1.44.89c-3.74,3.71-7.82,7.07-11.22,11.15-2,2.36-3.28,5.14-5.27,7.46C359.18,341.66,359.38,337.81,358.77,334Z"/><path class="cls-12" d="M267.5,211.74c-3.34.58-5.48-1.4-7.52-3.57-.58-.62-1.1-1.42-.61-2.25.65-1.1,1.49-.19,2.18.06,2,.72,3.71,2.09,6.08,1.93s4.17-.93,5.39-3a8.15,8.15,0,0,1,.69-1,2.27,2.27,0,0,1,3.15-.41c1.12.65.5,1.64.08,2.41C274.91,209.64,272.25,212.41,267.5,211.74Z"/><path class="cls-12" d="M266.07,202.49a7.7,7.7,0,0,1-2.1-.36c-1-.41-2-1.17-1.28-2.48.52-.95,1-2.13,2.64-1.21s1.7-.41,1.5-1.55c-.24-1.36-1.17-2.61-.56-4.08.22-.53.4-1.16,1-1.29s.94.53,1.17,1a41.49,41.49,0,0,1,2.06,4.78C271.65,201,270.4,202.57,266.07,202.49Z"/><path class="cls-12" d="M279,192.33c-.13,1.83-.51,3.38-2.38,3.46s-2.7-1.12-2.64-2.87.52-3.32,2.47-3.41S278.62,191.12,279,192.33Z"/><path class="cls-12" d="M259.94,192.87c-.1,1.32-.27,3.21-2.28,3.19s-2.24-1.81-2.29-3.5c-.06-1.86.71-2.74,2.63-2.73S259.92,191.21,259.94,192.87Z"/><path class="cls-12" d="M167,238.4c3.08-.1,3.66.81,2.39,3.7-1.47,3.34-3.93,4.86-7.67,4.71s-6.79-1.37-8.29-5.13c-.52-1.29-.64-2.22,1.21-2.34C158.78,239.07,162.89,238.72,167,238.4Z"/><path class="cls-12" d="M157.78,231.06a8.39,8.39,0,0,1,2.28-4.89c.36-.45.82-.94,1.47-.55s.51,1,.36,1.57-.43,1.07-.61,1.62-.92,1.19-.33,1.8,1-.15,1.56-.31c1.19-.36,2,.3,1.61,1.34a3.56,3.56,0,0,1-3.93,2.4A2.81,2.81,0,0,1,157.78,231.06Z"/><path class="cls-12" d="M168.08,224c.22-1.32.57-2.81,2.49-3,1.57-.12,3,1.55,2.93,3.38s-.81,2.87-2.65,3C169.3,227.45,168.09,226,168.08,224Z"/><path class="cls-12" d="M155.58,224.29c-.32,1.58-.43,3.29-2.44,3.28a2.53,2.53,0,0,1-2.58-2.78,2.84,2.84,0,0,1,2.66-3.07C154.89,221.55,155.29,223,155.58,224.29Z"/><path class="cls-12" d="M376.69,198a9.25,9.25,0,0,1-7.14-2.9c-1.18-1.3-.86-2.31.8-2.7a95.63,95.63,0,0,1,12.24-2c1.83-.18,2.08.82,1.71,2.32A7,7,0,0,1,376.69,198Z"/><path class="cls-12" d="M380.43,185a4.69,4.69,0,0,1-3.56,3.91c-.77.24-1.68.41-2.09-.7-.32-.88-.27-1.61.69-2.09.66-.33,1.52-.67,1.39-1.56-.16-1.08-1.17-.63-1.84-.73a1.16,1.16,0,0,1-1.11-1.36,1.68,1.68,0,0,1,1.22-1.68C377.38,180,380.42,182.21,380.43,185Z"/><path class="cls-12" d="M369.42,178.07a2.58,2.58,0,0,1-2.82,3c-1.52,0-2.12-1.21-2-2.59s.26-3.06,2.38-3.1C368.82,175.38,369.36,176.5,369.42,178.07Z"/><path class="cls-12" d="M381.55,177.51c0-2,1-3,2.77-3.05s1.92,1.24,2,2.56a2.41,2.41,0,0,1-2.38,2.88C382.32,180,381.78,178.7,381.55,177.51Z"/><path class="cls-12" d="M449.63,228.34c-3.11.19-5.11-1.6-6.85-3.83a1.64,1.64,0,0,1-.27-1.86c.39-.73,1-.65,1.73-.52a14.13,14.13,0,0,0,10.32-1.58c1.46-.89,2.11-.28,2.27,1.28C457.23,225.75,454.39,228.34,449.63,228.34Z"/><path class="cls-12" d="M444.23,213.22c-.38,1.24-.48,2.76-2.37,2.62s-2.6-1.34-2.58-3,1.2-2.35,2.66-2.3S444.22,211.65,444.23,213.22Z"/><path class="cls-12" d="M454.32,210.39a2.3,2.3,0,0,1,2.36,2.62,2,2,0,0,1-2.18,2.2,2.23,2.23,0,0,1-2.17-2.53C452.33,211.4,452.8,210.41,454.32,210.39Z"/><path class="cls-12" d="M611.34,285.18c-4.27-.33-8.17-4.08-11.32-8.87a22.76,22.76,0,0,1-1.68-3.61,1.94,1.94,0,0,1,.45-2.5c1-.71,1.85-.28,2.68.44,2,1.72,3.65,3.82,6,5.21,4.34,2.57,8.45,1.86,12.48-.47,5-2.9,8.73-6.94,9.93-12.79.5-2.44,2-2.85,4-2.5s1.93,2.09,1.71,3.54C633.72,276,626.23,284.83,611.34,285.18Z"/><path class="cls-12" d="M588.24,226.36a7,7,0,0,1,6.74,7.08c0,4.54-2.83,7.92-6.55,7.86s-6.65-3.69-6.65-8.18C581.77,228.83,584.13,226.36,588.24,226.36Z"/><path class="cls-12" d="M609.7,256.18c-6.59-.15-10.74-4.46-10.46-11a6.5,6.5,0,0,1,4.12-6,8.57,8.57,0,0,1,8.57.65c1.3.92,1.12,2-.42,2.56a30.65,30.65,0,0,1-3.4.74c-2,.45-3.66,2.34-3.27,4,.43,1.9,1.52,3.33,3.77,3.3.41,0,.83,0,1.25,0,3.6.12,4,.44,3.9,3.24C613.68,256,613.24,256.26,609.7,256.18Z"/><path class="cls-12" d="M633.38,229.51a6.15,6.15,0,0,1-4.84,5.8,6.83,6.83,0,0,1-7.24-5.51,11.39,11.39,0,0,1,.26-5.68,5.29,5.29,0,0,1,8.67-2.32C632.39,223.77,633.22,226.33,633.38,229.51Z"/><path class="cls-12" d="M405.85,406.39c-6,0-10.76-3.5-12.17-8.8a7.12,7.12,0,0,1-.09-3.68c.26-1,.82-1.64,2-1.4,7.06,1.45,14.12,2.92,21.4,2.76,1.47,0,1.19,1,1,1.94C417.11,402.76,412.25,406.44,405.85,406.39Z"/><path class="cls-12" d="M415.17,382.93c0,3-3.53,6.22-6.66,6.14-1.84,0-2.13-.89-1.39-2.39a7.3,7.3,0,0,1,2.5-2.36,2.24,2.24,0,0,0,1-2.38c-.31-1.18-1.37-.54-2.11-.68s-2,.38-2.2-1,.92-1.44,1.68-1.83C412.06,376.39,415.18,378.34,415.17,382.93Z"/><path class="cls-12" d="M392.1,378.54c-1.86-.05-3.63-2.2-3.61-4.36a3.82,3.82,0,0,1,4.21-3.87c2.24,0,3.48,1.46,3.44,4C396.11,376.43,394.06,378.6,392.1,378.54Z"/><path class="cls-12" d="M419.85,375.25c.06-2.39,1.49-4.13,3.41-4.14,2.12,0,3.74,2.07,3.69,4.76,0,2.26-1.33,3.71-3.19,3.62A3.91,3.91,0,0,1,419.85,375.25Z"/><path class="cls-12" d="M225.37,361.61c-9.43-.73-18.87-1.14-28.32-1.42-1.28,0-3,.18-3.62-1.08s.94-2.16,1.66-3.08a17.82,17.82,0,0,1,10.85-6.55c2.15-.45,3,.57,2.28,2.67-.48,1.4-1.51,2.92.08,4.07s3.37.72,4.87-.4a37.65,37.65,0,0,0,3.79-3.22,3.3,3.3,0,0,1,4.5-.42,19.51,19.51,0,0,1,6.45,7.13C228.85,360.9,227.82,361.82,225.37,361.61Z"/><path class="cls-12" d="M211.53,373.31c-5.31-.25-9.67-3.09-12.55-8.3-.87-1.59-.07-2.32,1.41-2.12,6.66.9,13.4.7,20.07,1.37,2.15.22,2.66,2.41,1.09,4.55C219.73,371.32,215.66,373.27,211.53,373.31Z"/><path class="cls-12" d="M230,345.42c0-3,1-4.68,2.71-4.55,1.92.15,3,2,2.79,4.83a7.3,7.3,0,0,1-.25,1.47c-.42,1.42-1,2.8-2.82,2.55s-2.22-1.57-2.42-3.06A9.13,9.13,0,0,1,230,345.42Z"/><path class="cls-12" d="M195.45,344c0,2.4-1.38,4.61-2.91,4.68s-3.2-2.28-2.92-4.32c.25-1.82.34-4,2.75-4.49C193.93,339.62,195.46,341.82,195.45,344Z"/><path class="cls-11" d="M174.48,328.32a5.53,5.53,0,0,1,2.76.5c-.91,1.67-1.47,3.53-2.67,5Z"/><path class="cls-12" d="M344,307.29c-3.24-.27-6.29-.69-8.74-2.84-.86-.76-2.42-1.51-1.37-3,.86-1.22,2.12-.47,3.16,0a11.14,11.14,0,0,0,4.24,1.37,16.79,16.79,0,0,0,12.49-4.65c1.18-1.11,2.39-3.37,4.22-1.71,1.66,1.5-.33,3.07-1.22,4.27C353.64,305,349.08,306.8,344,307.29Z"/><path class="cls-12" d="M343.64,294.77a8.93,8.93,0,0,1-1.81-.55c-1-.49-2.05-1.2-1.73-2.43s1.49-1.22,2.67-1.07c2.46.31,3.06-.58,2.1-2.84-.65-1.52-1.66-2.9-1.94-4.57-.12-.72-.23-1.57.54-2s1.45.07,2,.56a14.31,14.31,0,0,1,4.31,7.7C350.36,292,347.08,294.78,343.64,294.77Z"/><path class="cls-12" d="M356.57,276.36a4.27,4.27,0,0,1,3.55,3.6,4.07,4.07,0,0,1-3.86,3.81,3.61,3.61,0,0,1-3.75-3.26A4.16,4.16,0,0,1,356.57,276.36Z"/><path class="cls-12" d="M325.33,284.31c0-2.62,1.14-4,3.36-4,2.39,0,3.73,1.16,3.74,3.33a4,4,0,0,1-4.08,4.13C326.49,287.81,325.32,286.48,325.33,284.31Z"/></svg>