<?xml version="1.0" encoding="utf-8"?>
<!-- Generator: Adobe Illustrator 22.0.1, SVG Export Plug-In . SVG Version: 6.00 Build 0)  -->
<svg version="1.1" id="Layer_1" xmlns="http://www.w3.org/2000/svg" xmlns:xlink="http://www.w3.org/1999/xlink" x="0px" y="0px"
	 viewBox="0 0 257 114" style="enable-background:new 0 0 257 114;" xml:space="preserve">
<style type="text/css">
	.st0{opacity:0.2;}
	.st1{fill:#DDD1BE;}
	.st2{filter:url(#Adobe_OpacityMaskFilter);}
	.st3{fill:#FFFFFF;}
	.st4{mask:url(#mask-2_1_);fill:#DDD1BE;}
	.st5{fill:#FAF5E6;}
	.st6{filter:url(#Adobe_OpacityMaskFilter_1_);}
	.st7{mask:url(#mask-4_1_);fill:#FAF5E6;}
	.st8{fill:#FA9600;}
	.st9{filter:url(#Adobe_OpacityMaskFilter_2_);}
	.st10{mask:url(#mask-6_1_);fill:#FA9600;}
	.st11{filter:url(#Adobe_OpacityMaskFilter_3_);}
	.st12{mask:url(#mask-8_1_);fill:#DDD1BE;}
	.st13{filter:url(#Adobe_OpacityMaskFilter_4_);}
	.st14{mask:url(#mask-10_1_);fill:#FA9600;}
	.st15{filter:url(#Adobe_OpacityMaskFilter_5_);}
	.st16{mask:url(#mask-12_1_);fill:#FAF5E6;}
	.st17{filter:url(#Adobe_OpacityMaskFilter_6_);}
	.st18{mask:url(#mask-14_1_);fill:#DDD1BE;}
	.st19{filter:url(#Adobe_OpacityMaskFilter_7_);}
	.st20{mask:url(#mask-16_1_);fill:#FA9600;}
	.st21{filter:url(#Adobe_OpacityMaskFilter_8_);}
	.st22{mask:url(#mask-18_1_);fill:#DDD1BE;}
	.st23{fill:#F2EAD7;}
	.st24{filter:url(#Adobe_OpacityMaskFilter_9_);}
	.st25{mask:url(#mask-20_1_);fill:#F2EAD7;}
	.st26{filter:url(#Adobe_OpacityMaskFilter_10_);}
	.st27{mask:url(#mask-22_1_);fill:#FA9600;}
</style>
<title>Group 3</title>
<desc>Created with Sketch.</desc>
<g id="Desktop" class="st0">
	<g id="dp8" transform="translate(-516.000000, -458.000000)">
		<g id="Group-3" transform="translate(516.000000, 458.000000)">
			<g id="Group-9" transform="translate(134.000000, 0.000000)">
				<path id="Fill-1" class="st1" d="M11.1,19.6c1.3,2.7,4,4.5,6.8,5.2c4.2,1.1,9.1-0.1,11.7-3.8c0.8-1.1,1.3-2.4,1.8-3.8
					C34,9.1,30.9,2,22.7,0.3c-1.7-0.4-3.6-0.5-5.3,0.1c-5.6,1.9-7.9,9.6-7.3,15.2C10.2,17,10.5,18.3,11.1,19.6"/>
				<g id="Group-5" transform="translate(0.000000, 27.000000)">
					<g id="Clip-4">
					</g>
					<defs>
						<filter id="Adobe_OpacityMaskFilter" filterUnits="userSpaceOnUse" x="0" y="0" width="40.8" height="56.5">
							<feColorMatrix  type="matrix" values="1 0 0 0 0  0 1 0 0 0  0 0 1 0 0  0 0 0 1 0"/>
						</filter>
					</defs>
					<mask maskUnits="userSpaceOnUse" x="0" y="0" width="40.8" height="56.5" id="mask-2_1_">
						<g class="st2">
							<polygon id="path-1_1_" class="st3" points="40.8,0 40.8,56.5 0,56.5 0,0 							"/>
						</g>
					</mask>
					<path id="Fill-3" class="st4" d="M40.8,56.1c0-11-1.3-21.7-0.8-32.8c0.3-5.8,1-14.4-1.9-19c-1-1.7-2.4-2.4-3.8-2.4
						c-7-0.3-13.9-2.6-20.9-1.7C9.5,0.8,5.3,2.4,3.8,8.9c-1.2,5.2-1.1,11.3-1.5,16.8c-0.5,7.6-1.4,15.2-1.9,22.8
						c-0.2,1.9-0.6,4-0.5,5.9C0.3,58.6,29.3,55,40.8,56.1"/>
				</g>
			</g>
			<g id="Group-9_1_" transform="translate(98.000000, 0.000000)">
				<path id="Fill-1_1_" class="st5" d="M11.1,19.6c1.3,2.7,4,4.5,6.8,5.2c4.2,1.1,9.1-0.1,11.7-3.8c0.8-1.1,1.3-2.4,1.8-3.8
					C34,9.1,30.9,2,22.7,0.3c-1.7-0.4-3.6-0.5-5.3,0.1c-5.6,1.9-7.9,9.6-7.3,15.2C10.2,17,10.5,18.3,11.1,19.6"/>
				<g id="Group-5_1_" transform="translate(0.000000, 27.000000)">
					<g id="Clip-4_1_">
					</g>
					<defs>
						<filter id="Adobe_OpacityMaskFilter_1_" filterUnits="userSpaceOnUse" x="0" y="0" width="40.8" height="56.5">
							<feColorMatrix  type="matrix" values="1 0 0 0 0  0 1 0 0 0  0 0 1 0 0  0 0 0 1 0"/>
						</filter>
					</defs>
					<mask maskUnits="userSpaceOnUse" x="0" y="0" width="40.8" height="56.5" id="mask-4_1_">
						<g class="st6">
							<polygon id="path-3_1_" class="st3" points="40.8,0 40.8,56.5 0,56.5 0,0 							"/>
						</g>
					</mask>
					<path id="Fill-3_1_" class="st7" d="M40.8,56.1c0-11-1.3-21.7-0.8-32.8c0.3-5.8,1-14.4-1.9-19c-1-1.7-2.4-2.4-3.8-2.4
						c-7-0.3-13.9-2.6-20.9-1.7C9.5,0.8,5.3,2.4,3.8,8.9c-1.2,5.2-1.1,11.3-1.5,16.8c-0.5,7.6-1.4,15.2-1.9,22.8
						c-0.2,1.9-0.6,4-0.5,5.9C0.3,58.6,29.3,55,40.8,56.1"/>
				</g>
			</g>
			<g id="Group-9_2_" transform="translate(110.000000, 30.000000)">
				<path id="Fill-1_2_" class="st8" d="M11.1,19.6c1.3,2.7,4,4.5,6.8,5.2c4.2,1.1,9.1-0.1,11.7-3.8c0.8-1.1,1.3-2.4,1.8-3.8
					C34,9.1,30.9,2,22.7,0.3c-1.7-0.4-3.6-0.5-5.3,0.1c-5.6,1.9-7.9,9.6-7.3,15.2C10.2,17,10.5,18.3,11.1,19.6"/>
				<g id="Group-5_2_" transform="translate(0.000000, 27.000000)">
					<g id="Clip-4_2_">
					</g>
					<defs>
						<filter id="Adobe_OpacityMaskFilter_2_" filterUnits="userSpaceOnUse" x="0" y="0" width="40.8" height="56.5">
							<feColorMatrix  type="matrix" values="1 0 0 0 0  0 1 0 0 0  0 0 1 0 0  0 0 0 1 0"/>
						</filter>
					</defs>
					<mask maskUnits="userSpaceOnUse" x="0" y="0" width="40.8" height="56.5" id="mask-6_1_">
						<g class="st9">
							<polygon id="path-5_1_" class="st3" points="40.8,0 40.8,56.5 0,56.5 0,0 							"/>
						</g>
					</mask>
					<path id="Fill-3_2_" class="st10" d="M40.8,56.1c0-11-1.3-21.7-0.8-32.8c0.3-5.8,1-14.4-1.9-19c-1-1.7-2.4-2.4-3.8-2.4
						c-7-0.3-13.9-2.6-20.9-1.7C9.5,0.8,5.3,2.4,3.8,8.9c-1.2,5.2-1.1,11.3-1.5,16.8c-0.5,7.6-1.4,15.2-1.9,22.8
						c-0.2,1.9-0.6,4-0.5,5.9C0.3,58.6,29.3,55,40.8,56.1"/>
				</g>
			</g>
			<g id="Group-9_3_" transform="translate(62.000000, 0.000000)">
				<path id="Fill-1_3_" class="st1" d="M11.1,19.6c1.3,2.7,4,4.5,6.8,5.2c4.2,1.1,9.1-0.1,11.7-3.8c0.8-1.1,1.3-2.4,1.8-3.8
					C34,9.1,30.9,2,22.7,0.3c-1.7-0.4-3.6-0.5-5.3,0.1c-5.6,1.9-7.9,9.6-7.3,15.2C10.2,17,10.5,18.3,11.1,19.6"/>
				<g id="Group-5_3_" transform="translate(0.000000, 27.000000)">
					<g id="Clip-4_3_">
					</g>
					<defs>
						<filter id="Adobe_OpacityMaskFilter_3_" filterUnits="userSpaceOnUse" x="0" y="0" width="40.8" height="56.5">
							<feColorMatrix  type="matrix" values="1 0 0 0 0  0 1 0 0 0  0 0 1 0 0  0 0 0 1 0"/>
						</filter>
					</defs>
					<mask maskUnits="userSpaceOnUse" x="0" y="0" width="40.8" height="56.5" id="mask-8_1_">
						<g class="st11">
							<polygon id="path-7_1_" class="st3" points="40.8,0 40.8,56.5 0,56.5 0,0 							"/>
						</g>
					</mask>
					<path id="Fill-3_3_" class="st12" d="M40.8,56.1c0-11-1.3-21.7-0.8-32.8c0.3-5.8,1-14.4-1.9-19c-1-1.7-2.4-2.4-3.8-2.4
						c-7-0.3-13.9-2.6-20.9-1.7C9.5,0.8,5.3,2.4,3.8,8.9c-1.2,5.2-1.1,11.3-1.5,16.8c-0.5,7.6-1.4,15.2-1.9,22.8
						c-0.2,1.9-0.6,4-0.5,5.9C0.3,58.6,29.3,55,40.8,56.1"/>
				</g>
			</g>
			<g id="Group-9_4_" transform="translate(168.000000, 0.000000)">
				<path id="Fill-1_4_" class="st8" d="M11.1,19.6c1.3,2.7,4,4.5,6.8,5.2c4.2,1.1,9.1-0.1,11.7-3.8c0.8-1.1,1.3-2.4,1.8-3.8
					C34,9.1,30.9,2,22.7,0.3c-1.7-0.4-3.6-0.5-5.3,0.1c-5.6,1.9-7.9,9.6-7.3,15.2C10.2,17,10.5,18.3,11.1,19.6"/>
				<g id="Group-5_4_" transform="translate(0.000000, 27.000000)">
					<g id="Clip-4_4_">
					</g>
					<defs>
						<filter id="Adobe_OpacityMaskFilter_4_" filterUnits="userSpaceOnUse" x="0" y="0" width="40.8" height="56.5">
							<feColorMatrix  type="matrix" values="1 0 0 0 0  0 1 0 0 0  0 0 1 0 0  0 0 0 1 0"/>
						</filter>
					</defs>
					<mask maskUnits="userSpaceOnUse" x="0" y="0" width="40.8" height="56.5" id="mask-10_1_">
						<g class="st13">
							<polygon id="path-9_1_" class="st3" points="40.8,0 40.8,56.5 0,56.5 0,0 							"/>
						</g>
					</mask>
					<path id="Fill-3_4_" class="st14" d="M40.8,56.1c0-11-1.3-21.7-0.8-32.8c0.3-5.8,1-14.4-1.9-19c-1-1.7-2.4-2.4-3.8-2.4
						c-7-0.3-13.9-2.6-20.9-1.7C9.5,0.8,5.3,2.4,3.8,8.9c-1.2,5.2-1.1,11.3-1.5,16.8c-0.5,7.6-1.4,15.2-1.9,22.8
						c-0.2,1.9-0.6,4-0.5,5.9C0.3,58.6,29.3,55,40.8,56.1"/>
				</g>
			</g>
			<g id="Group-4" transform="translate(41.000000, 28.000000)">
				<path id="Fill-1_5_" class="st5" d="M12.1,19.6c1.3,2.7,4,4.5,6.8,5.2c4.2,1.1,9.1-0.1,11.7-3.8c0.8-1.1,1.3-2.4,1.8-3.8
					C35,9.1,31.9,2,23.7,0.3c-1.7-0.4-3.6-0.5-5.3,0.1c-5.6,1.9-7.9,9.6-7.3,15.2C11.2,17,11.5,18.3,12.1,19.6"/>
				<g id="Group-5_5_" transform="translate(0.000000, 27.000000)">
					<g id="Clip-4_5_">
					</g>
					<defs>
						<filter id="Adobe_OpacityMaskFilter_5_" filterUnits="userSpaceOnUse" x="0" y="0" width="40.8" height="57.4">
							<feColorMatrix  type="matrix" values="1 0 0 0 0  0 1 0 0 0  0 0 1 0 0  0 0 0 1 0"/>
						</filter>
					</defs>
					<mask maskUnits="userSpaceOnUse" x="0" y="0" width="40.8" height="57.4" id="mask-12_1_">
						<g class="st15">
							<polygon id="path-11_1_" class="st3" points="40.8,0 40.8,57.4 0,57.4 0,0 							"/>
						</g>
					</mask>
					<path id="Fill-3_5_" class="st16" d="M40.8,57c0-11.2-1.3-22.1-0.8-33.3c0.3-5.9,1-14.6-1.9-19.3c-1-1.7-2.4-2.4-3.8-2.5
						c-7-0.3-13.9-2.6-20.9-1.7C9.5,0.8,5.3,2.5,3.8,9c-1.2,5.3-1.1,11.5-1.5,17.1c-0.5,7.7-1.4,15.5-1.9,23.2
						c-0.2,1.9-0.6,4.1-0.5,6C0.3,59.6,29.3,55.9,40.8,57"/>
				</g>
			</g>
			<g id="Group-11" transform="translate(179.000000, 26.000000)">
				<path id="Fill-1_6_" class="st1" d="M11.1,19.6c1.3,2.7,4,4.5,6.8,5.2c4.2,1.1,9.1-0.1,11.7-3.8c0.8-1.1,1.3-2.4,1.8-3.8
					C34,9.1,30.9,2,22.7,0.3c-1.7-0.4-3.6-0.5-5.3,0.1c-5.6,1.9-7.9,9.6-7.3,15.2C10.2,17,10.5,18.3,11.1,19.6"/>
				<g id="Group-5_6_" transform="translate(0.000000, 27.000000)">
					<g id="Clip-4_6_">
					</g>
					<defs>
						<filter id="Adobe_OpacityMaskFilter_6_" filterUnits="userSpaceOnUse" x="0" y="0" width="40.8" height="60.1">
							<feColorMatrix  type="matrix" values="1 0 0 0 0  0 1 0 0 0  0 0 1 0 0  0 0 0 1 0"/>
						</filter>
					</defs>
					<mask maskUnits="userSpaceOnUse" x="0" y="0" width="40.8" height="60.1" id="mask-14_1_">
						<g class="st17">
							<polygon id="path-13_1_" class="st3" points="40.8,0 40.8,60.1 0,60.1 0,0 							"/>
						</g>
					</mask>
					<path id="Fill-3_6_" class="st18" d="M40.8,59.7c0-11.7-1.3-23.1-0.8-34.8c0.3-6.2,1-15.3-1.9-20.2c-1-1.8-2.4-2.5-3.8-2.6
						c-7-0.4-13.9-2.8-20.9-1.8C9.5,0.8,5.3,2.6,3.8,9.4C2.7,15,2.8,21.5,2.4,27.3c-0.5,8.1-1.4,16.2-1.9,24.3
						c-0.2,2-0.6,4.3-0.5,6.3C0.3,62.3,29.3,58.5,40.8,59.7"/>
				</g>
			</g>
			<g id="Group-8" transform="translate(70.000000, 36.000000)">
				<path id="Fill-1_7_" class="st8" d="M13.4,24.3c1.6,3.4,4.9,5.6,8.4,6.5c5.2,1.4,11.3-0.2,14.5-4.7c1-1.4,1.7-3,2.2-4.7
					c3.3-10.1-0.6-18.9-10.7-21c-2.2-0.5-4.5-0.6-6.6,0.1c-6.9,2.4-9.8,12-9.1,18.9C12.3,21.1,12.6,22.8,13.4,24.3"/>
				<g id="Group-5_7_" transform="translate(0.000000, 33.000000)">
					<g id="Clip-4_7_">
					</g>
					<defs>
						<filter id="Adobe_OpacityMaskFilter_7_" filterUnits="userSpaceOnUse" x="0" y="0" width="50.6" height="44.7">
							<feColorMatrix  type="matrix" values="1 0 0 0 0  0 1 0 0 0  0 0 1 0 0  0 0 0 1 0"/>
						</filter>
					</defs>
					<mask maskUnits="userSpaceOnUse" x="0" y="0" width="50.6" height="44.7" id="mask-16_1_">
						<g class="st19">
							<polygon id="path-15_1_" class="st3" points="50.6,0 50.6,44.7 0,44.7 0,0 							"/>
						</g>
					</mask>
					<path id="Fill-3_7_" class="st20" d="M50.6,44.4c0-8.7-1.7-17.2-1-25.9c0.3-4.6,1.2-11.4-2.3-15c-1.2-1.3-3-1.9-4.7-1.9
						c-8.7-0.3-17.2-2.1-25.9-1.3C11.8,0.6,6.5,1.9,4.8,7c-1.4,4.1-1.3,9-1.8,13.3c-0.7,6-1.8,12-2.3,18.1c-0.2,1.5-0.7,3.2-0.6,4.7
						C0.3,46.4,36.3,43.5,50.6,44.4"/>
				</g>
			</g>
			<g id="Group-2" transform="translate(0.000000, 36.000000)">
				<path id="Fill-1_8_" class="st1" d="M14.4,24.3c1.6,3.4,4.9,5.6,8.4,6.5c5.2,1.4,11.3-0.2,14.5-4.7c1-1.4,1.7-3,2.2-4.7
					c3.3-10.1-0.6-18.9-10.7-21c-2.2-0.5-4.5-0.6-6.6,0.1c-6.9,2.4-9.8,12-9.1,18.9C13.3,21.1,13.6,22.8,14.4,24.3"/>
				<g id="Group-5_8_" transform="translate(0.000000, 33.000000)">
					<g id="Clip-4_8_">
					</g>
					<defs>
						<filter id="Adobe_OpacityMaskFilter_8_" filterUnits="userSpaceOnUse" x="0" y="0" width="50.6" height="44.7">
							<feColorMatrix  type="matrix" values="1 0 0 0 0  0 1 0 0 0  0 0 1 0 0  0 0 0 1 0"/>
						</filter>
					</defs>
					<mask maskUnits="userSpaceOnUse" x="0" y="0" width="50.6" height="44.7" id="mask-18_1_">
						<g class="st21">
							<polygon id="path-17_1_" class="st3" points="50.6,0 50.6,44.7 0,44.7 0,0 							"/>
						</g>
					</mask>
					<path id="Fill-3_8_" class="st22" d="M50.6,44.4c0-8.7-1.7-17.2-1-25.9c0.3-4.6,1.2-11.4-2.3-15c-1.2-1.3-3-1.9-4.7-1.9
						c-8.7-0.3-17.2-2.1-25.9-1.3C11.8,0.6,6.5,1.9,4.8,7c-1.4,4.1-1.3,9-1.8,13.3c-0.7,6-1.8,12-2.3,18.1c-0.2,1.5-0.7,3.2-0.6,4.7
						C0.3,46.4,36.3,43.5,50.6,44.4"/>
				</g>
			</g>
			<g id="Group-10" transform="translate(138.000000, 36.000000)">
				<path id="Fill-1_9_" class="st23" d="M13.4,24.3c1.6,3.4,4.9,5.6,8.4,6.5c5.2,1.4,11.3-0.2,14.5-4.7c1-1.4,1.7-3,2.2-4.7
					c3.3-10.1-0.6-18.9-10.7-21c-2.2-0.5-4.5-0.6-6.6,0.1c-6.9,2.4-9.8,12-9.1,18.9C12.3,21.1,12.6,22.8,13.4,24.3"/>
				<g id="Group-5_9_" transform="translate(0.000000, 33.000000)">
					<g id="Clip-4_9_">
					</g>
					<defs>
						<filter id="Adobe_OpacityMaskFilter_9_" filterUnits="userSpaceOnUse" x="0" y="0" width="50.6" height="44.7">
							<feColorMatrix  type="matrix" values="1 0 0 0 0  0 1 0 0 0  0 0 1 0 0  0 0 0 1 0"/>
						</filter>
					</defs>
					<mask maskUnits="userSpaceOnUse" x="0" y="0" width="50.6" height="44.7" id="mask-20_1_">
						<g class="st24">
							<polygon id="path-19_1_" class="st3" points="50.6,0 50.6,44.7 0,44.7 0,0 							"/>
						</g>
					</mask>
					<path id="Fill-3_9_" class="st25" d="M50.6,44.4c0-8.7-1.7-17.2-1-25.9c0.3-4.6,1.2-11.4-2.3-15c-1.2-1.3-3-1.9-4.7-1.9
						c-8.7-0.3-17.2-2.1-25.9-1.3C11.8,0.6,6.5,1.9,4.8,7c-1.4,4.1-1.3,9-1.8,13.3c-0.7,6-1.8,12-2.3,18.1c-0.2,1.5-0.7,3.2-0.6,4.7
						C0.3,46.4,36.3,43.5,50.6,44.4"/>
				</g>
			</g>
			<g id="Group-14" transform="translate(206.000000, 36.000000)">
				<path id="Fill-1_10_" class="st8" d="M13.4,24.3c1.6,3.4,4.9,5.6,8.4,6.5c5.2,1.4,11.3-0.2,14.5-4.7c1-1.4,1.7-3,2.2-4.7
					c3.3-10.1-0.6-18.9-10.7-21c-2.2-0.5-4.5-0.6-6.6,0.1c-6.9,2.4-9.8,12-9.1,18.9C12.3,21.1,12.6,22.8,13.4,24.3"/>
				<g id="Group-5_10_" transform="translate(0.000000, 33.000000)">
					<g id="Clip-4_10_">
					</g>
					<defs>
						<filter id="Adobe_OpacityMaskFilter_10_" filterUnits="userSpaceOnUse" x="0" y="0" width="50.6" height="44.7">
							<feColorMatrix  type="matrix" values="1 0 0 0 0  0 1 0 0 0  0 0 1 0 0  0 0 0 1 0"/>
						</filter>
					</defs>
					<mask maskUnits="userSpaceOnUse" x="0" y="0" width="50.6" height="44.7" id="mask-22_1_">
						<g class="st26">
							<polygon id="path-21_1_" class="st3" points="50.6,0 50.6,44.7 0,44.7 0,0 							"/>
						</g>
					</mask>
					<path id="Fill-3_10_" class="st27" d="M50.6,44.4c0-8.7-1.7-17.2-1-25.9c0.3-4.6,1.2-11.4-2.3-15c-1.2-1.3-3-1.9-4.7-1.9
						c-8.7-0.3-17.2-2.1-25.9-1.3C11.8,0.6,6.5,1.9,4.8,7c-1.4,4.1-1.3,9-1.8,13.3c-0.7,6-1.8,12-2.3,18.1c-0.2,1.5-0.7,3.2-0.6,4.7
						C0.3,46.4,36.3,43.5,50.6,44.4"/>
				</g>
			</g>
		</g>
	</g>
</g>
</svg>
